<?xml version="1.0" encoding="UTF-8"?>
<svg version="1.1" xmlns="http://www.w3.org/2000/svg" width="225" height="225">
<path d="M0 0 C0 0.66 0 1.32 0 2 C-1.01578125 2.09796875 -2.0315625 2.1959375 -3.078125 2.296875 C-18.20848027 3.88225865 -31.7642818 7.07469952 -41.875 19.375 C-51.65733952 33.02424079 -52.49824716 49.14850815 -49.875 65.3125 C-48.36641153 73.72715475 -45.5373881 81.24729685 -42 89 C-41.32130859 90.53914063 -41.32130859 90.53914063 -40.62890625 92.109375 C-27.50343892 120.219441 -1.66793735 143.17049785 27.37890625 153.78515625 C43.33614924 159.13866496 61.18736486 161.87778374 76.84375 154.19140625 C89.73562983 147.06817555 95.67710389 138.59758006 101 125 C101.66 125.33 102.32 125.66 103 126 C101.23986682 140.81664348 96.06177927 153.9247919 84.2109375 163.5234375 C68.58062774 173.96205426 51.77465579 176.36703114 33.3828125 173.34765625 C12.28621954 169.12737026 -6.59136501 158.70700664 -22.44580078 144.39404297 C-23.97526108 143.02218964 -25.52858669 141.6831178 -27.08984375 140.34765625 C-51.23696182 119.38409423 -67.45301245 88.29641044 -70.3203125 56.44140625 C-70.84874018 40.92324664 -66.2522811 26.36196325 -56.375 14.3125 C-41.57264678 -1.33249193 -20.51012148 -4.18987655 0 0 Z " fill="#055DA9" transform="translate(94,26)"/>
<path d="M0 0 C6.27 0 12.54 0 19 0 C19.33 10.56 19.66 21.12 20 32 C23.3 30.35 26.6 28.7 30 27 C40.18396753 24.96320649 48.93283246 25.78797013 58.1875 30.6875 C66.12177563 37.21123774 71.33603386 44.75183469 73 55 C73.99560295 66.09852463 72.07283375 77.52217547 64.7734375 86.28515625 C57.34405417 93.46907538 49.9164791 96.39378836 39.75 96.375 C38.90042725 96.37411377 38.05085449 96.37322754 37.17553711 96.37231445 C29.82923743 96.2331452 24.45835752 94.8819646 18.75 90.125 C17.88375 89.568125 17.88375 89.568125 17 89 C12.30563215 90.50861736 8.3571682 93.15697705 4.20703125 95.7578125 C2 97 2 97 0 97 C0 64.99 0 32.98 0 0 Z M21.62109375 49.7265625 C18.40391339 55.1744707 18.24134746 60.826465 19 67 C20.72592521 72.38082566 24.34295113 75.92534623 29 79 C34.282042 80.6959748 39.13382982 80.64641099 44.1875 78.3125 C48.5005264 75.94325532 50.82171441 73.06199978 53.25 68.8125 C54.79083487 63.03436922 54.87804954 57.24329715 52.5 51.6875 C49.95739097 47.3198824 46.74400113 44.7265313 42 43 C33.82563723 41.54836644 26.9203326 43.09125493 21.62109375 49.7265625 Z " fill="#2492EA" transform="translate(89,58)"/>
<path d="M0 0 C22.43851951 17.58287214 40.63081255 42.61263703 45.4375 71.15234375 C47.26435322 86.4359283 45.66101569 99.84449431 36.875 112.8125 C29.77738812 121.56894071 21.07888888 127.00213317 9.875 128.8125 C5.87010263 129.03726643 1.88449153 129.00273578 -2.125 128.9375 C-3.18589844 128.92847656 -4.24679688 128.91945312 -5.33984375 128.91015625 C-7.93513638 128.88677524 -10.52994465 128.85400556 -13.125 128.8125 C-13.125 127.8225 -13.125 126.8325 -13.125 125.8125 C-12.08601563 125.71453125 -11.04703125 125.6165625 -9.9765625 125.515625 C3.66409843 124.11158387 13.3401275 121.41262382 22.875 110.8125 C24.60189615 108.24082492 25.83851798 105.72478915 26.875 102.8125 C27.22046875 101.89855469 27.5659375 100.98460937 27.921875 100.04296875 C33.3900911 81.50930188 27.86703231 62.62280801 18.9519043 46.23730469 C15.44117478 40.00840023 11.52776454 34.24732496 6.875 28.8125 C6.18664062 27.99136719 5.49828125 27.17023438 4.7890625 26.32421875 C-10.55209724 8.58768495 -32.2752346 -4.0812548 -55.76953125 -6.57421875 C-66.51928383 -6.92409846 -78.05566033 -5.05232023 -86.453125 2.125 C-92.23527613 7.96118993 -95.43225371 14.08273419 -98.125 21.8125 C-98.785 21.8125 -99.445 21.8125 -100.125 21.8125 C-101.0727142 11.38764375 -96.53497112 2.28164035 -90.26171875 -5.77734375 C-66.52506398 -32.55159603 -24.67302932 -17.6699093 0 0 Z " fill="#2591E7" transform="translate(150.125,49.1875)"/>
<path d="M0 0 C0.33 0 0.66 0 1 0 C1.495 3.465 1.495 3.465 2 7 C1.01 7.33 0.02 7.66 -1 8 C-1 8.99 -1 9.98 -1 11 C-0.01 10.34 0.98 9.68 2 9 C2 10.98 2 12.96 2 15 C2.99 15.33 3.98 15.66 5 16 C-5.51609578 25.85883979 -15.79748802 28.35607967 -30 28.125 C-31.06089844 28.11597656 -32.12179688 28.10695312 -33.21484375 28.09765625 C-35.81013638 28.07427524 -38.40494465 28.04150556 -41 28 C-41 27.01 -41 26.02 -41 25 C-39.96101562 24.90203125 -38.92203125 24.8040625 -37.8515625 24.703125 C-24.32523013 23.31085178 -14.33416769 20.68886105 -5 10 C-3.00494672 6.7765319 -1.39683643 3.52149816 0 0 Z " fill="#228FE3" transform="translate(178,150)"/>
<path d="M0 0 C6.27 0 12.54 0 19 0 C19 10.56 19 21.12 19 32 C18.67 32 18.34 32 18 32 C17.67 22.43 17.34 12.86 17 3 C12.05 2.67 7.1 2.34 2 2 C2 32.36 2 62.72 2 94 C3.65 93.01 5.3 92.02 7 91 C7 90.34 7 89.68 7 89 C8.32 89.33 9.64 89.66 11 90 C11.33 88.68 11.66 87.36 12 86 C15.375 86.25 15.375 86.25 19 87 C20.4375 89.0625 20.4375 89.0625 21 91 C20.14921875 90.59007812 19.2984375 90.18015625 18.421875 89.7578125 C14.92776132 88.62127043 14.92776132 88.62127043 11.640625 90.5546875 C10.49666686 91.30763916 9.36649898 92.08190072 8.25 92.875 C2.16460396 97 2.16460396 97 0 97 C0 64.99 0 32.98 0 0 Z " fill="#2C84C6" transform="translate(89,58)"/>
<path d="M0 0 C11.58750198 9.06847981 22.73949636 22.72731281 27 37 C24 36 24 36 22.3125 33.0625 C21 30 21 30 21 28 C19.01508358 28.26676204 19.01508358 28.26676204 17 29 C16.67 29.99 16.34 30.98 16 32 C14.68 31.67 13.36 31.34 12 31 C12.33 34.63 12.66 38.26 13 42 C10.76103148 39.01470863 8.71367611 36.09749335 6.75 32.9375 C6.20859375 32.08027344 5.6671875 31.22304687 5.109375 30.33984375 C4 28 4 28 5 25 C5.70125 24.360625 6.4025 23.72125 7.125 23.0625 C8.053125 22.0415625 8.053125 22.0415625 9 21 C8.86358623 18.78141747 8.86358623 18.78141747 8 17 C8.99 17 9.98 17 11 17 C11 16.34 11 15.68 11 15 C10.34 15 9.68 15 9 15 C7.74609375 13.57421875 7.74609375 13.57421875 6.4375 11.6875 C6.00308594 11.07261719 5.56867188 10.45773438 5.12109375 9.82421875 C4 8 4 8 3 5 C2.484375 4.484375 1.96875 3.96875 1.4375 3.4375 C0.963125 2.963125 0.48875 2.48875 0 2 C0 1.34 0 0.68 0 0 Z " fill="#268FE2" transform="translate(160,59)"/>
<path d="M0 0 C0 0.66 0 1.32 0 2 C-1.01578125 2.09796875 -2.0315625 2.1959375 -3.078125 2.296875 C-17.03895358 3.75971371 -30.3583423 6.35174175 -40.10546875 17.3828125 C-41.30885863 18.926129 -42.48568569 20.49082545 -43.625 22.08203125 C-45 24 -45 24 -47 26 C-46.66666667 24.33333333 -46.33333333 22.66666667 -46 21 C-45.855625 20.113125 -45.71125 19.22625 -45.5625 18.3125 C-45 16 -45 16 -43 14 C-41.7625 13.5359375 -41.7625 13.5359375 -40.5 13.0625 C-37.69808253 12.1416526 -37.69808253 12.1416526 -36 9 C-35.01 9 -34.02 9 -33 9 C-32.34 7.35 -31.68 5.7 -31 4 C-34.63 4.33 -38.26 4.66 -42 5 C-42 5.66 -42 6.32 -42 7 C-42.99 7 -43.98 7 -45 7 C-45 7.66 -45 8.32 -45 9 C-46.8125 10.0625 -46.8125 10.0625 -49 11 C-49.99 10.67 -50.98 10.34 -52 10 C-36.81816266 -1.51631265 -18.61346043 -3.80242025 0 0 Z " fill="#0A59A0" transform="translate(94,26)"/>
<path d="M0 0 C0.33 0.99 0.66 1.98 1 3 C0.34 3.66 -0.32 4.32 -1 5 C-1 6.32 -1 7.64 -1 9 C0.32 9 1.64 9 3 9 C3 9.66 3 10.32 3 11 C2.3709375 11.25652344 1.741875 11.51304688 1.09375 11.77734375 C-8.49721047 16.06727637 -13.9246654 21.88215339 -18 31.5625 C-18.68525418 33.3680546 -19.35886457 35.17831231 -20 37 C-20.66 37 -21.32 37 -22 37 C-22.94791399 26.57294616 -18.40143904 17.50476745 -12.1640625 9.421875 C-8.64749627 5.48636766 -4.72272091 2.36136045 0 0 Z " fill="#258BDB" transform="translate(72,34)"/>
<path d="M0 0 C0.66 0 1.32 0 2 0 C4.01231622 7.16887652 5.12959101 12.95842024 2 20 C2 20.99 2 21.98 2 23 C1.67 23.66 1.34 24.32 1 25 C0.34 25 -0.32 25 -1 25 C-1 25.66 -1 26.32 -1 27 C-0.34 27 0.32 27 1 27 C-0.0975223 29.99324263 -0.67682892 30.84610901 -3.625 32.25 C-4.40875 32.4975 -5.1925 32.745 -6 33 C-6.66 32.34 -7.32 31.68 -8 31 C-10.4355165 30.87103696 -10.4355165 30.87103696 -13.1875 31.0625 C-21.01558224 31.17476715 -25.81674983 28.4940988 -31.6171875 23.5 C-34.72214277 20.13191293 -34.10206811 16.12542381 -34.0625 11.8125 C-34.05347656 10.54019531 -34.04445313 9.26789063 -34.03515625 7.95703125 C-34.02355469 6.98121094 -34.01195313 6.00539063 -34 5 C-33.67 5 -33.34 5 -33 5 C-32.96261719 5.72445312 -32.92523438 6.44890625 -32.88671875 7.1953125 C-32.39618828 14.40899585 -31.67525498 19.80921084 -26.0625 24.8125 C-22.77537006 27.2243129 -22.77537006 27.2243129 -19 28 C-17.9275 28.103125 -16.855 28.20625 -15.75 28.3125 C-11.10115244 27.92509604 -7.79844955 26.70020218 -4 24 C0.98601772 17.7355162 1.31885164 12.70149347 1 5 C0.58480886 2.06528987 0.58480886 2.06528987 0 0 Z " fill="#2F8DD6" transform="translate(141,109)"/>
<path d="M0 0 C0.66 0.33 1.32 0.66 2 1 C0.97343476 8.86132853 -0.70769307 15.77610324 -4 23 C-4.33 22.34 -4.66 21.68 -5 21 C-6.1446875 21.2475 -6.1446875 21.2475 -7.3125 21.5 C-10 22 -10 22 -13 22 C-12.113125 21.05125 -11.22625 20.1025 -10.3125 19.125 C-5.47614528 13.49973635 -2.68267705 6.85302047 0 0 Z " fill="#11599A" transform="translate(195,151)"/>
<path d="M0 0 C0.66 1.32 1.32 2.64 2 4 C2.99 4 3.98 4 5 4 C4.51789062 4.79664063 4.03578125 5.59328125 3.5390625 6.4140625 C2.90742187 7.47367188 2.27578125 8.53328125 1.625 9.625 C0.99851562 10.66914062 0.37203125 11.71328125 -0.2734375 12.7890625 C-1.90451153 15.82241736 -3.02076833 18.70622076 -4 22 C-4.66 22 -5.32 22 -6 22 C-6.70176376 14.28059866 -4.28211047 6.4231657 0 0 Z " fill="#2A86CE" transform="translate(56,49)"/>
<path d="M0 0 C0.33 0 0.66 0 1 0 C1.02698189 1.62490954 1.04638757 3.24994633 1.0625 4.875 C1.07410156 5.77992187 1.08570313 6.68484375 1.09765625 7.6171875 C1 10 1 10 0 12 C-0.3934475 24.15949704 -0.3934475 24.15949704 3 35 C3.39898408 36.57263797 3.74476192 38.15895601 4.0625 39.75 C4.23910156 40.61109375 4.41570313 41.4721875 4.59765625 42.359375 C4.99276012 44.95248391 5.07063592 47.38176202 5 50 C2.69881725 46.54822587 1.89006389 43.21961988 0.9375 39.25 C0.76412109 38.5590625 0.59074219 37.868125 0.41210938 37.15625 C-2.62182821 24.78801402 -3.19938514 12.39761744 0 0 Z " fill="#165793" transform="translate(26,62)"/>
<path d="M0 0 C0 0.66 0 1.32 0 2 C-4.95 3.485 -4.95 3.485 -10 5 C-7.03 5.33 -4.06 5.66 -1 6 C-1 6.33 -1 6.66 -1 7 C-8.59 7 -16.18 7 -24 7 C-24 6.01 -24 5.02 -24 4 C-22.37191406 3.81824219 -22.37191406 3.81824219 -20.7109375 3.6328125 C-19.26558596 3.46387531 -17.82027558 3.29458575 -16.375 3.125 C-15.66214844 3.04636719 -14.94929687 2.96773437 -14.21484375 2.88671875 C-9.45248321 2.3187308 -4.64476148 0 0 0 Z " fill="#3484C6" transform="translate(161,171)"/>
<path d="M0 0 C4.66634714 3.65192385 8.57618032 7.64534372 12.375 12.1875 C13.03604736 12.97205566 13.03604736 12.97205566 13.71044922 13.77246094 C15.69236307 16.18233198 17.00352749 18.01058248 18 21 C15.69 20.34 13.38 19.68 11 19 C11 17.68 11 16.36 11 15 C10.34 15 9.68 15 9 15 C7.74609375 13.57421875 7.74609375 13.57421875 6.4375 11.6875 C6.00308594 11.07261719 5.56867188 10.45773438 5.12109375 9.82421875 C4 8 4 8 3 5 C2.484375 4.484375 1.96875 3.96875 1.4375 3.4375 C0.963125 2.963125 0.48875 2.48875 0 2 C0 1.34 0 0.68 0 0 Z " fill="#258CDA" transform="translate(160,59)"/>
<path d="M0 0 C3.37498158 -0.02922646 6.74993021 -0.04687468 10.125 -0.0625 C11.55199219 -0.07506836 11.55199219 -0.07506836 13.0078125 -0.08789062 C17.79018487 -0.10449608 22.29771569 -0.00537055 27 1 C27 1.66 27 2.32 27 3 C25.97261719 3.10957031 24.94523437 3.21914063 23.88671875 3.33203125 C15.68815988 4.25377445 7.89521555 5.49092726 0 8 C0 7.34 0 6.68 0 6 C5.35264798 3.84015959 9.07756617 2.84606198 15 2 C10.05 1.67 5.1 1.34 0 1 C0 0.67 0 0.34 0 0 Z " fill="#1B5B91" transform="translate(67,25)"/>
<path d="M0 0 C2.31 0 4.62 0 7 0 C1.55667144 5.44332856 -7.14518071 5.18454399 -14.39355469 5.25537109 C-27.45673037 5.2318377 -27.45673037 5.2318377 -33 4 C-33 3.67 -33 3.34 -33 3 C-32.2479126 3.00523682 -31.4958252 3.01047363 -30.72094727 3.01586914 C-27.33480658 3.03657227 -23.94867916 3.04963877 -20.5625 3.0625 C-19.37849609 3.07087891 -18.19449219 3.07925781 -16.97460938 3.08789062 C-15.84990234 3.09111328 -14.72519531 3.09433594 -13.56640625 3.09765625 C-12.00321655 3.10551147 -12.00321655 3.10551147 -10.40844727 3.11352539 C-8.04871253 3.27305556 -8.04871253 3.27305556 -7 2 C-4.66702567 1.95907063 -2.33294775 1.95758277 0 2 C0 1.34 0 0.68 0 0 Z " fill="#19578F" transform="translate(160,195)"/>
<path d="M0 0 C0.66 0.99 1.32 1.98 2 3 C0.6875 4.5 0.6875 4.5 -1 6 C-1.99 6 -2.98 6 -4 6 C-4.27714844 6.72058594 -4.55429687 7.44117188 -4.83984375 8.18359375 C-6.31643249 11.76817449 -8.09345158 15.15919904 -9.87890625 18.59765625 C-10.88251429 20.7482449 -11.52398464 22.68410504 -12 25 C-12.66 25 -13.32 25 -14 25 C-12.73213586 14.94554252 -6.90455303 7.12925742 0 0 Z " fill="#155795" transform="translate(41,37)"/>
<path d="M0 0 C0 0.33 0 0.66 0 1 C-1.60407328 1.02708567 -3.2082785 1.04643483 -4.8125 1.0625 C-6.15248047 1.07990234 -6.15248047 1.07990234 -7.51953125 1.09765625 C-10 1 -10 1 -13 0 C-14.40664926 -0.14492123 -15.8181133 -0.24628931 -17.23046875 -0.31640625 C-18.43413086 -0.37924805 -18.43413086 -0.37924805 -19.66210938 -0.44335938 C-20.49548828 -0.48267578 -21.32886719 -0.52199219 -22.1875 -0.5625 C-23.03248047 -0.60568359 -23.87746094 -0.64886719 -24.74804688 -0.69335938 C-26.83184433 -0.79931518 -28.91590103 -0.9001502 -31 -1 C-31 -1.33 -31 -1.66 -31 -2 C-20.24491752 -4.26422789 -10.51762563 -2.35594814 0 0 Z " fill="#3389CC" transform="translate(114,32)"/>
<path d="M0 0 C0.33 0 0.66 0 1 0 C1.03738281 0.72445312 1.07476562 1.44890625 1.11328125 2.1953125 C1.61410307 9.56033932 2.35154648 14.410401 7.8125 19.75 C10.88409746 21.91818644 13.38561281 23.05337478 17 24 C16.34 24.66 15.68 25.32 15 26 C9.46042421 23.96505379 5.03717693 21.37931057 1 17 C-0.18681726 13.43954823 -0.09689832 10.56191663 -0.0625 6.8125 C-0.05347656 5.54019531 -0.04445313 4.26789063 -0.03515625 2.95703125 C-0.02355469 1.98121094 -0.01195313 1.00539063 0 0 Z " fill="#2F87C9" transform="translate(107,114)"/>
<path d="M0 0 C1 3 1 3 -0.3125 5.6875 C-0.869375 6.450625 -1.42625 7.21375 -2 8 C-2.66 8 -3.32 8 -4 8 C-4.66 9.32 -5.32 10.64 -6 12 C-6.99 12 -7.98 12 -9 12 C-9 10.68 -9 9.36 -9 8 C-8.34 8 -7.68 8 -7 8 C-6.773125 7.4225 -6.54625 6.845 -6.3125 6.25 C-4.66961977 3.4336339 -2.60466773 1.91922886 0 0 Z " fill="#2293EB" transform="translate(66,41)"/>
<path d="M0 0 C5.4611399 0.35233161 5.4611399 0.35233161 8 1 C9.5 3.0625 9.5 3.0625 10 5 C9.12730469 4.60039062 8.25460938 4.20078125 7.35546875 3.7890625 C4.00530771 2.63735779 4.00530771 2.63735779 1.11328125 4.3359375 C-0.27310547 5.34527344 -0.27310547 5.34527344 -1.6875 6.375 C-6.74710425 10 -6.74710425 10 -10 10 C-10 8.02 -10 6.04 -10 4 C-9.67 5.32 -9.34 6.64 -9 8 C-6.46326712 6.6446674 -6.46326712 6.6446674 -4 5 C-4 4.34 -4 3.68 -4 3 C-2.68 3.33 -1.36 3.66 0 4 C0 2.68 0 1.36 0 0 Z " fill="#2E89CC" transform="translate(100,144)"/>
<path d="M0 0 C-0.99 0 -1.98 0 -3 0 C-3.33 0.99 -3.66 1.98 -4 3 C-7.3 3.33 -10.6 3.66 -14 4 C-14 4.66 -14 5.32 -14 6 C-14.99 6 -15.98 6 -17 6 C-17 6.66 -17 7.32 -17 8 C-18.8125 9.0625 -18.8125 9.0625 -21 10 C-21.99 9.67 -22.98 9.34 -24 9 C-8.09701169 -2.39714162 -8.09701169 -2.39714162 0 0 Z " fill="#225B91" transform="translate(66,27)"/>
<path d="M0 0 C0.33 0.66 0.66 1.32 1 2 C-0.07661281 3.4425402 -1.16160103 4.87883161 -2.25 6.3125 C-2.85328125 7.11300781 -3.4565625 7.91351563 -4.078125 8.73828125 C-5.90270136 10.88549612 -7.68297046 12.41601299 -10 14 C-11 12 -12 10 -13 8 C-10.03 8.495 -10.03 8.495 -7 9 C-7 7.68 -7 6.36 -7 5 C-6.360625 4.896875 -5.72125 4.79375 -5.0625 4.6875 C-4.0415625 4.3471875 -4.0415625 4.3471875 -3 4 C-2.67 3.01 -2.34 2.02 -2 1 C-1.34 0.67 -0.68 0.34 0 0 Z " fill="#0E5796" transform="translate(189,174)"/>
<path d="M0 0 C0.33 0 0.66 0 1 0 C1.62000364 8.59393933 0.22857936 15.99925041 -3 24 C-3.66 24.66 -4.32 25.32 -5 26 C-5 22.66666667 -5 19.33333333 -5 16 C-4.34 16 -3.68 16 -3 16 C-0.91613111 10.72086547 -0.42089996 5.60461531 0 0 Z " fill="#358CCE" transform="translate(161,114)"/>
<path d="M0 0 C0.33 0.66 0.66 1.32 1 2 C1.62567871 1.98952637 2.25135742 1.97905273 2.89599609 1.96826172 C5.7222901 1.92676809 8.54852011 1.90069527 11.375 1.875 C12.35984375 1.85824219 13.3446875 1.84148438 14.359375 1.82421875 C15.77089844 1.81455078 15.77089844 1.81455078 17.2109375 1.8046875 C18.51490479 1.78897705 18.51490479 1.78897705 19.84521484 1.77294922 C22 2 22 2 24 4 C22.7934375 3.98839844 21.586875 3.97679687 20.34375 3.96484375 C18.72916823 3.95545665 17.11458476 3.94635744 15.5 3.9375 C14.70851563 3.92912109 13.91703125 3.92074219 13.1015625 3.91210938 C7.97238283 3.89108815 3.07663894 4.26062713 -2 5 C-2 4.01 -2 3.02 -2 2 C-1.34 2 -0.68 2 0 2 C0 1.34 0 0.68 0 0 Z " fill="#318BCE" transform="translate(78,39)"/>
<path d="M0 0 C8.0037999 1.35657625 14.73831954 4.43088967 22 8 C17.80441263 9.39852912 15.95433149 7.77263136 12 6 C9.22111387 5.30859478 9.22111387 5.30859478 7 5 C7 4.34 7 3.68 7 3 C4.69 2.67 2.38 2.34 0 2 C0 1.34 0 0.68 0 0 Z " fill="#2F87CA" transform="translate(115,33)"/>
<path d="M0 0 C0.66 0.33 1.32 0.66 2 1 C1.05542371 7.76761128 0.06997835 13.8600433 -3 20 C-4.46882457 17.06235086 -3.6935696 14.90231624 -3.1875 11.6875 C-3.01605469 10.55699219 -2.84460938 9.42648438 -2.66796875 8.26171875 C-2.06022903 5.2941008 -1.22714115 2.75977312 0 0 Z " fill="#245D96" transform="translate(195,151)"/>
<path d="M0 0 C2.45862401 -0.05383848 4.9160755 -0.09359038 7.375 -0.125 C8.42300781 -0.15013672 8.42300781 -0.15013672 9.4921875 -0.17578125 C11.32897486 -0.19344267 13.16601963 -0.10303261 15 0 C17 2 17 2 17 5 C16.236875 4.690625 15.47375 4.38125 14.6875 4.0625 C9.82685159 2.66197419 5.03141827 2.34020266 0 2 C0 1.34 0 0.68 0 0 Z " fill="#2E8ACF" transform="translate(120,99)"/>
<path d="M0 0 C5.75 1.875 5.75 1.875 8 3 C8 3.66 8 4.32 8 5 C8.66 5 9.32 5 10 5 C12.125 9.625 12.125 9.625 11 13 C9.53927468 11.39801112 8.08150284 9.79332884 6.625 8.1875 C5.81289062 7.29417969 5.00078125 6.40085937 4.1640625 5.48046875 C2 3 2 3 0 0 Z " fill="#2A89D1" transform="translate(146,65)"/>
<path d="M0 0 C0.66 0.33 1.32 0.66 2 1 C0.75312408 1.96239452 -0.49764969 2.91974009 -1.75 3.875 C-2.44609375 4.40867188 -3.1421875 4.94234375 -3.859375 5.4921875 C-7.04389427 7.73529779 -9.05567463 9 -13 9 C-12.67 8.01 -12.34 7.02 -12 6 C-11.34 6 -10.68 6 -10 6 C-9.67 5.34 -9.34 4.68 -9 4 C-8.01 4.33 -7.02 4.66 -6 5 C-5.67 4.34 -5.34 3.68 -5 3 C-2.5625 1.3125 -2.5625 1.3125 0 0 Z " fill="#3288CB" transform="translate(151,144)"/>
<path d="M0 0 C0.33 0.99 0.66 1.98 1 3 C-5.37295696 6.17476348 -10.84937514 8.59524765 -18 9 C-15.22565531 7.58451801 -12.42178699 6.29640375 -9.5625 5.0625 C-6.21459693 3.5874338 -3.0810896 1.98779974 0 0 Z " fill="#17578E" transform="translate(178,176)"/>
<path d="M0 0 C2.92879371 0.62759865 5.36095629 1.58622659 8 3 C8 3.99 8 4.98 8 6 C8.598125 6.12375 9.19625 6.2475 9.8125 6.375 C12 7 12 7 15 9 C14.01 9.33 13.02 9.66 12 10 C9.3359375 8.41796875 9.3359375 8.41796875 6.375 6.1875 C5.39273438 5.45917969 4.41046875 4.73085937 3.3984375 3.98046875 C1 2 1 2 0 0 Z " fill="#0F5892" transform="translate(76,173)"/>
<path d="M0 0 C2.0625 0.4375 2.0625 0.4375 4 1 C-1.39459439 4.08467498 -5.79011871 5.55643705 -12 6 C-12 5.34 -12 4.68 -12 4 C-11.21753906 3.79503906 -10.43507812 3.59007812 -9.62890625 3.37890625 C-8.61699219 3.10949219 -7.60507813 2.84007812 -6.5625 2.5625 C-5.55316406 2.29566406 -4.54382813 2.02882812 -3.50390625 1.75390625 C-1.08247999 1.24021923 -1.08247999 1.24021923 0 0 Z " fill="#2E86CB" transform="translate(172,171)"/>
<path d="M0 0 C1.65 0.33 3.3 0.66 5 1 C4.34 2.98 3.68 4.96 3 7 C1.35 7.33 -0.3 7.66 -2 8 C-2 4.23312136 -1.76462683 3.08809695 0 0 Z " fill="#2492EB" transform="translate(173,164)"/>
<path d="M0 0 C0.66 0 1.32 0 2 0 C2.598125 0.639375 3.19625 1.27875 3.8125 1.9375 C6.26700181 4.25174456 7.70523261 4.63391473 11 5 C11 5.66 11 6.32 11 7 C10.34 7 9.68 7 9 7 C9 7.66 9 8.32 9 9 C8.01 9 7.02 9 6 9 C4.39453125 7.28515625 4.39453125 7.28515625 2.8125 5.0625 C2.28269531 4.33160156 1.75289062 3.60070312 1.20703125 2.84765625 C0 1 0 1 0 0 Z " fill="#0B54A1" transform="translate(52,149)"/>
<path d="M0 0 C1.32 0.66 2.64 1.32 4 2 C3.2575 2.495 2.515 2.99 1.75 3.5 C-1.65862674 6.59875158 -3.18726063 9.82766134 -5 14 C-5.33 14 -5.66 14 -6 14 C-6.3125 11.3125 -6.3125 11.3125 -6 8 C-3.5625 5.3125 -3.5625 5.3125 -1 3 C-0.67 2.01 -0.34 1.02 0 0 Z " fill="#3289C9" transform="translate(114,100)"/>
<path d="M0 0 C5.48125741 -0.34257859 10.13420243 0.2818648 15 3 C15.99 4.485 15.99 4.485 17 6 C16.35933594 5.80664062 15.71867187 5.61328125 15.05859375 5.4140625 C10.04889015 3.9059252 5.03460143 2.42282214 0 1 C0 0.67 0 0.34 0 0 Z " fill="#3186CB" transform="translate(104,43)"/>
<path d="M0 0 C3 1 3 1 4.38671875 3.21484375 C4.81597656 4.11332031 5.24523438 5.01179688 5.6875 5.9375 C6.12449219 6.83339844 6.56148437 7.72929688 7.01171875 8.65234375 C8 11 8 11 8 13 C7.01 12.67 6.02 12.34 5 12 C4.6278958 10.67696283 4.29369827 9.34262065 4 8 C3.34 7.67 2.68 7.34 2 7 C2 5.35 2 3.7 2 2 C1.34 2 0.68 2 0 2 C0 1.34 0 0.68 0 0 Z " fill="#0F51A1" transform="translate(49,114)"/>
<path d="M0 0 C2.97246802 2.54782974 4.41535288 5.45340883 6 9 C6 9.66 6 10.32 6 11 C3 10 3 10 1.3125 7.1875 C0 4 0 4 0 0 Z " fill="#2C87CC" transform="translate(181,85)"/>
<path d="M0 0 C1.13199353 0.9080162 2.25532363 1.82683826 3.375 2.75 C4.00148437 3.26046875 4.62796875 3.7709375 5.2734375 4.296875 C7.08312318 6.08199481 8.00117455 7.67949644 9 10 C6.5625 9.1875 6.5625 9.1875 4 8 C3.67 7.01 3.34 6.02 3 5 C2.484375 4.484375 1.96875 3.96875 1.4375 3.4375 C0.963125 2.963125 0.48875 2.48875 0 2 C0 1.34 0 0.68 0 0 Z " fill="#2D85C9" transform="translate(160,59)"/>
<path d="M0 0 C1.32 0.33 2.64 0.66 4 1 C3.67 2.32 3.34 3.64 3 5 C1.35 5.33 -0.3 5.66 -2 6 C-1.34 4.02 -0.68 2.04 0 0 Z " fill="#075BA0" transform="translate(63,29)"/>
<path d="M0 0 C0.33 0 0.66 0 1 0 C1.33 2.31 1.66 4.62 2 7 C1.01 7.33 0.02 7.66 -1 8 C-1.33 8.66 -1.66 9.32 -2 10 C-2.66 10 -3.32 10 -4 10 C-2.66666667 6.66666667 -1.33333333 3.33333333 0 0 Z " fill="#2F89CE" transform="translate(178,150)"/>
<path d="M0 0 C3.08089673 2.77280706 4.68775452 5.06326356 6 9 C3.525 8.01 3.525 8.01 1 7 C0.67 4.69 0.34 2.38 0 0 Z " fill="#125793" transform="translate(57,127)"/>
<path d="M0 0 C1.32 0.66 2.64 1.32 4 2 C1.3765992 4.91488977 -1.71816394 6.88503898 -5 9 C-4.6875 7.125 -4.6875 7.125 -4 5 C-3.01 4.34 -2.02 3.68 -1 3 C-0.67 2.01 -0.34 1.02 0 0 Z " fill="#2B86CC" transform="translate(66,44)"/>
<path d="M0 0 C0.8125 1.6875 0.8125 1.6875 1 4 C-1.3125 6.75 -1.3125 6.75 -4 9 C-4.66 9 -5.32 9 -6 9 C-4.47291037 5.56404834 -2.40072955 2.88087546 0 0 Z " fill="#2A86C7" transform="translate(63,40)"/>
<path d="M0 0 C0.99 0.33 1.98 0.66 3 1 C2.875 2.875 2.875 2.875 2 5 C-1.0625 6.25 -1.0625 6.25 -4 7 C-2.68 4.69 -1.36 2.38 0 0 Z " fill="#0D5799" transform="translate(171,188)"/>
<path d="M0 0 C1.15518918 0.90484792 2.29885406 1.8244206 3.4375 2.75 C4.07558594 3.26046875 4.71367187 3.7709375 5.37109375 4.296875 C7.18810554 6.19667629 7.60423197 7.43586908 8 10 C4.15654191 8.54213659 2.84920065 6.61034412 1 3 C0.67 2.01 0.34 1.02 0 0 Z " fill="#2B8DCA" transform="translate(149,91)"/>
<path d="M0 0 C0.66 0 1.32 0 2 0 C2 0.66 2 1.32 2 2 C2.66 2.33 3.32 2.66 4 3 C3.01 5.31 2.02 7.62 1 10 C0.67 10 0.34 10 0 10 C0 6.66666667 0 3.33333333 0 0 Z " fill="#2A8AD2" transform="translate(156,130)"/>
<path d="M0 0 C0.66 0.33 1.32 0.66 2 1 C-1.625 6.75 -1.625 6.75 -5 9 C-3.7508258 5.54074837 -2.32472205 2.85306797 0 0 Z " fill="#3087C5" transform="translate(188,156)"/>
<path d="M0 0 C1.98 0 3.96 0 6 0 C6 0.66 6 1.32 6 2 C6.66 2 7.32 2 8 2 C8 2.66 8 3.32 8 4 C5.64828869 3.40138258 3.3140622 2.73075648 1 2 C0.67 1.34 0.34 0.68 0 0 Z " fill="#2986C8" transform="translate(110,149)"/>
<path d="M0 0 C1.40907283 2.81814566 0.50872691 4.17277204 -0.4375 7.125 C-0.72496094 8.03507812 -1.01242188 8.94515625 -1.30859375 9.8828125 C-1.53675781 10.58148438 -1.76492187 11.28015625 -2 12 C-2.33 12 -2.66 12 -3 12 C-3.36923077 4.61538462 -3.36923077 4.61538462 -1.5 1.5 C-1.005 1.005 -0.51 0.51 0 0 Z " fill="#155995" transform="translate(46,52)"/>
<path d="M0 0 C0.66 0.33 1.32 0.66 2 1 C0.37660195 2.70884005 -1.29319053 4.37446717 -3 6 C-3.66 6 -4.32 6 -5 6 C-5.33 5.01 -5.66 4.02 -6 3 C-4.68 3 -3.36 3 -2 3 C-2 2.34 -2 1.68 -2 1 C-1.34 0.67 -0.68 0.34 0 0 Z " fill="#2685CC" transform="translate(181,165)"/>
<path d="M0 0 C0.99 0 1.98 0 3 0 C3 0.66 3 1.32 3 2 C4.32 2 5.64 2 7 2 C7 2.66 7 3.32 7 4 C6.01 4.33 5.02 4.66 4 5 C2.68 3.35 1.36 1.7 0 0 Z M7 1 C9 2 9 2 9 2 Z " fill="#155693" transform="translate(61,160)"/>
<path d="M0 0 C0.53625 0.2475 1.0725 0.495 1.625 0.75 C0.635 0.75 -0.355 0.75 -1.375 0.75 C-1.375 1.41 -1.375 2.07 -1.375 2.75 C-3.1875 3.8125 -3.1875 3.8125 -5.375 4.75 C-6.365 4.42 -7.355 4.09 -8.375 3.75 C-2.95961538 -0.31153846 -2.95961538 -0.31153846 0 0 Z " fill="#125595" transform="translate(50.375,32.25)"/>
<path d="" fill="#FFFFFF" transform="translate(0,0)"/>
<path d="" fill="#FFFFFF" transform="translate(0,0)"/>
<path d="" fill="#FFFFFF" transform="translate(0,0)"/>
<path d="" fill="#FEFFFF" transform="translate(0,0)"/>
<path d="" fill="#FFFFFF" transform="translate(0,0)"/>
<path d="" fill="#FFFFFF" transform="translate(0,0)"/>
<path d="" fill="#FFFFFF" transform="translate(0,0)"/>
<path d="" fill="#FFFFFF" transform="translate(0,0)"/>
<path d="" fill="#FFFFFF" transform="translate(0,0)"/>
<path d="" fill="#FFFFFF" transform="translate(0,0)"/>
<path d="" fill="#FFFFFF" transform="translate(0,0)"/>
<path d="" fill="#01FFFF" transform="translate(0,0)"/>
<path d="" fill="#FFFFFF" transform="translate(0,0)"/>
<path d="" fill="#FFFFFF" transform="translate(0,0)"/>
<path d="" fill="#FFFFFF" transform="translate(0,0)"/>
<path d="" fill="#FFFFFF" transform="translate(0,0)"/>
<path d="" fill="#FFFFFF" transform="translate(0,0)"/>
<path d="" fill="#FFFFFF" transform="translate(0,0)"/>
<path d="" fill="#FFFFFF" transform="translate(0,0)"/>
<path d="" fill="#FFFFFF" transform="translate(0,0)"/>
<path d="" fill="#FFFFFF" transform="translate(0,0)"/>
<path d="" fill="#FFFFFF" transform="translate(0,0)"/>
<path d="" fill="#FFFFFF" transform="translate(0,0)"/>
<path d="" fill="#FFFFFF" transform="translate(0,0)"/>
<path d="" fill="#FFFFFF" transform="translate(0,0)"/>
<path d="" fill="#FFFFFF" transform="translate(0,0)"/>
<path d="" fill="#FFFFFF" transform="translate(0,0)"/>
<path d="" fill="#FFFFFF" transform="translate(0,0)"/>
<path d="" fill="#FFFFFF" transform="translate(0,0)"/>
<path d="" fill="#FFFFFF" transform="translate(0,0)"/>
<path d="" fill="#FFFFFF" transform="translate(0,0)"/>
<path d="" fill="#FFFFFF" transform="translate(0,0)"/>
<path d="" fill="#FFFFFF" transform="translate(0,0)"/>
<path d="" fill="#FFFFFF" transform="translate(0,0)"/>
<path d="" fill="#FFFFFF" transform="translate(0,0)"/>
<path d="" fill="#FFFFFF" transform="translate(0,0)"/>
<path d="" fill="#FFFFFF" transform="translate(0,0)"/>
<path d="" fill="#FFFFFF" transform="translate(0,0)"/>
<path d="" fill="#FFFFFF" transform="translate(0,0)"/>
<path d="" fill="#FFFFFF" transform="translate(0,0)"/>
<path d="" fill="#FFFFFF" transform="translate(0,0)"/>
<path d="" fill="#FFFFFF" transform="translate(0,0)"/>
<path d="" fill="#FFFFFF" transform="translate(0,0)"/>
<path d="" fill="#FFFFFF" transform="translate(0,0)"/>
<path d="" fill="#FFFFFF" transform="translate(0,0)"/>
<path d="" fill="#FFFFFF" transform="translate(0,0)"/>
<path d="" fill="#FFFFFF" transform="translate(0,0)"/>
<path d="" fill="#FFFFFF" transform="translate(0,0)"/>
<path d="" fill="#FFFFFF" transform="translate(0,0)"/>
<path d="" fill="#FFFFFF" transform="translate(0,0)"/>
<path d="" fill="#FFFFFF" transform="translate(0,0)"/>
<path d="" fill="#FFFFFF" transform="translate(0,0)"/>
<path d="" fill="#FFFFFF" transform="translate(0,0)"/>
<path d="" fill="#FFFFFF" transform="translate(0,0)"/>
<path d="" fill="#FFFFFF" transform="translate(0,0)"/>
<path d="" fill="#FFFFFF" transform="translate(0,0)"/>
<path d="" fill="#FFFFFF" transform="translate(0,0)"/>
<path d="" fill="#FFFFFF" transform="translate(0,0)"/>
<path d="" fill="#FFFFFF" transform="translate(0,0)"/>
<path d="" fill="#FFFFFF" transform="translate(0,0)"/>
<path d="" fill="#FFFFFF" transform="translate(0,0)"/>
<path d="" fill="#FFFFFF" transform="translate(0,0)"/>
<path d="" fill="#FFFFFF" transform="translate(0,0)"/>
<path d="" fill="#FFFFFF" transform="translate(0,0)"/>
<path d="" fill="#FFFFFF" transform="translate(0,0)"/>
</svg>
