<?xml version="1.0" encoding="UTF-8"?>
<svg version="1.1" xmlns="http://www.w3.org/2000/svg" width="994" height="251">
<path d="M0 0 C5.83096952 3.10157953 10.86601899 6.85556181 16 11 C15.4352699 14.90829085 13.57868029 16.89920223 10.9375 19.75 C9.83728516 20.94882813 9.83728516 20.94882813 8.71484375 22.171875 C8.14894531 22.77515625 7.58304688 23.3784375 7 24 C7.42152344 24.83144531 7.84304688 25.66289063 8.27734375 26.51953125 C8.82519531 27.60621094 9.37304688 28.69289063 9.9375 29.8125 C10.48277344 30.89144531 11.02804687 31.97039062 11.58984375 33.08203125 C15.40779354 40.98233179 15.42383859 51.11982039 12.9765625 59.5078125 C9.71134631 66.56140106 5.16227231 71.34406092 -1 76 C-0.49210938 76.3403125 0.01578125 76.680625 0.5390625 77.03125 C5.97292932 80.85734349 11.37242573 85.3554588 13.640625 91.828125 C15.36544731 102.25205114 14.36526219 111.86985761 8.18359375 120.55078125 C0.61918782 129.03536536 -10.03816588 132.67481539 -21 134 C-34.96493126 134.80063553 -48.576874 133.1961763 -60 124.47265625 C-67.2991072 117.7870516 -70.42554912 109.90398869 -71.0546875 100.15234375 C-71 98 -71 98 -70 97 C-68.43827255 96.91314397 -66.87270656 96.89297781 -65.30859375 96.90234375 C-64.36435547 96.90556641 -63.42011719 96.90878906 -62.44726562 96.91210938 C-61.45404297 96.92048828 -60.46082031 96.92886719 -59.4375 96.9375 C-58.44041016 96.94201172 -57.44332031 96.94652344 -56.41601562 96.95117188 C-53.94395151 96.96299993 -51.47200482 96.97948151 -49 97 C-48.79246094 97.74765625 -48.58492187 98.4953125 -48.37109375 99.265625 C-46.42490938 106.04148415 -46.42490938 106.04148415 -41.4375 110.625 C-33.82601296 113.66959482 -25.36448587 114.45981415 -17.4375 111.8125 C-13.025485 109.48616482 -10.84959702 107.30604906 -9.125 102.625 C-8.94717087 98.8905883 -9.49951449 96.43861262 -11 93 C-16.12391864 88.80770293 -21.52227681 87.90305921 -27.9375 87.625 C-41.40408512 86.8364821 -52.8488795 83.75847241 -62.375 73.6875 C-71.07873194 63.27818827 -71.7908025 52.04196512 -71 39 C-69.77649478 29.75030054 -64.5642434 21.64210701 -57.3125 15.85546875 C-46.33887589 8.61592507 -35.13903941 5.82222813 -22 7 C-17.24119644 8.09524223 -12.63703119 9.46346896 -8 11 C-7.60167969 10.12601563 -7.60167969 10.12601563 -7.1953125 9.234375 C-5.96697004 6.93825772 -4.59685061 5.19643982 -2.875 3.25 C-2.33617187 2.63640625 -1.79734375 2.0228125 -1.2421875 1.390625 C-0.83226562 0.93171875 -0.42234375 0.4728125 0 0 Z M-44.9375 33.875 C-48.56341229 39.3688065 -49.76444992 44.44052648 -49 51 C-47.8141835 56.73503978 -45.41424714 60.09520439 -40.9140625 63.7734375 C-35.15237604 67.46562025 -29.66378507 67.61276185 -23 67 C-16.69471349 65.49425994 -12.78939863 61.59154284 -9.1875 56.375 C-7.03429638 50.25536865 -7.33356814 44.39131431 -9.0625 38.1875 C-12.06652178 33.24539965 -15.6654691 30.11651478 -20.875 27.625 C-29.78299784 25.84340043 -38.5438018 26.75005772 -44.9375 33.875 Z " fill="#010101" transform="translate(951,89)"/>
<path d="M0 0 C1.18154663 -0.0141394 1.18154663 -0.0141394 2.38696289 -0.02856445 C7.93825667 0.00213768 13.00908284 0.84658169 18.375 2.25 C18.375 2.91 18.375 3.57 18.375 4.25 C17.51503418 4.34704224 17.51503418 4.34704224 16.63769531 4.44604492 C-1.45442816 6.55969553 -17.55646586 10.11679187 -29.7734375 24.71875 C-40.26580559 39.06274689 -42.51578107 56.95894224 -40.12109375 74.25390625 C-39.4730837 78.29816117 -38.60039524 82.2731631 -37.625 86.25 C-37.4693457 86.89404785 -37.31369141 87.5380957 -37.15332031 88.20166016 C-31.68228093 109.92747424 -19.02092915 129.23513902 -3.625 145.25 C-2.78324219 146.14332031 -1.94148438 147.03664062 -1.07421875 147.95703125 C21.33980392 171.14954385 51.65707799 187.62354719 84.375 188.25 C97.54623961 187.97893614 110.47546079 184.11304899 120.375 175.25 C121.04015625 174.69957031 121.7053125 174.14914063 122.390625 173.58203125 C128.8112221 167.83535178 131.85385773 160.97747979 135.375 153.25 C136.03475831 151.9132348 136.69783501 150.5780323 137.375 149.25 C138.035 149.58 138.695 149.91 139.375 150.25 C138.24203511 166.96123211 131.58857794 180.8069948 119.375 192.25 C102.95758676 204.92049611 84.23160574 208.24025188 64.06640625 205.78515625 C33.79902822 201.37431464 8.61965308 185.4920453 -13.625 165.25 C-14.40206299 164.54302979 -14.40206299 164.54302979 -15.19482422 163.82177734 C-40.55245251 140.40283056 -61.21392396 104.97399818 -62.9453125 69.94140625 C-63.5064279 51.19593544 -59.82782502 33.45056566 -47.3125 18.8125 C-34.1704477 5.27085827 -18.4827536 0.16641457 0 0 Z " fill="#035EAB" transform="translate(84.625,22.75)"/>
<path d="M0 0 C7.26 0 14.52 0 22 0 C22 36.63 22 73.26 22 111 C16.68152913 109.93630583 12.72174847 107.88799149 8.08398438 105.26367188 C4.62802387 103.31929091 4.62802387 103.31929091 0.8359375 103.60546875 C0.23007812 104.06566406 -0.37578125 104.52585937 -1 105 C-1.69738281 105.474375 -2.39476562 105.94875 -3.11328125 106.4375 C-4.57423996 107.47548132 -6.03260138 108.51712846 -7.48828125 109.5625 C-15.91076653 114.38283372 -26.87763305 114.314069 -36.203125 112.3125 C-46.11192178 108.9911156 -54.69618877 102.55404714 -59.4453125 93.1328125 C-61.77089665 87.80390253 -63.68072417 82.85339021 -64 77 C-64.07541016 75.78957031 -64.07541016 75.78957031 -64.15234375 74.5546875 C-64.61238194 61.63681518 -60.92207459 49.45654678 -52.109375 39.890625 C-44.12971775 32.73848776 -33.85270882 29.42195105 -23.19921875 29.74609375 C-15.23929345 30.66509045 -8.8434214 33.0012336 -2 37 C-1.96241577 35.37203491 -1.96241577 35.37203491 -1.92407227 33.71118164 C-1.83016245 29.698684 -1.72990233 25.68636618 -1.62768555 21.67407227 C-1.58427427 19.93485712 -1.54260388 18.19559765 -1.50268555 16.45629883 C-1.44513232 13.96161512 -1.3813958 11.4671559 -1.31640625 8.97265625 C-1.29969376 8.19036148 -1.28298126 7.40806671 -1.26576233 6.60206604 C-1.11387171 1.11387171 -1.11387171 1.11387171 0 0 Z M-37 57 C-41.37355781 62.66411585 -41.66583375 68.66837724 -41.44921875 75.65234375 C-40.59847357 81.99224478 -37.55599095 85.79482301 -32.875 89.9375 C-27.35751235 93.89569766 -21.5708688 93.60509946 -15 93 C-8.95425358 91.09368356 -5.16637562 86.43579571 -1.88671875 81.234375 C0.33133295 75.64527557 -0.12387036 68.210816 -1.6875 62.48046875 C-4.40309393 56.56273698 -8.36800383 52.98699856 -14.5 50.6875 C-23.00620266 49.01663876 -30.79553262 50.6231863 -37 57 Z " fill="#020202" transform="translate(421,66)"/>
<path d="M0 0 C7.26 0 14.52 0 22 0 C22.33 12.54 22.66 25.08 23 38 C26.3 36.02 29.6 34.04 33 32 C43.23277567 28.90323894 54.77567726 29.10146116 64.62109375 33.578125 C74.32706826 39.37939712 81.52582741 47.88447815 84.49609375 58.83203125 C86.69153265 72.63436415 86.00405955 86.32429275 77.65234375 97.90234375 C71.17499311 106.12536336 63.59344268 111.41017246 53 113 C40.07038899 113.88117926 31.43268015 111.50973097 21 104 C20.34 103.67 19.68 103.34 19 103 C17.15649969 103.61275282 17.15649969 103.61275282 15.15625 104.65234375 C14.40472656 105.01650391 13.65320313 105.38066406 12.87890625 105.75585938 C12.09386719 106.14580078 11.30882812 106.53574219 10.5 106.9375 C8.94957 107.69998569 7.3975563 108.45926213 5.84375 109.21484375 C4.81024414 109.72712524 4.81024414 109.72712524 3.75585938 110.24975586 C2 111 2 111 0 111 C0 74.37 0 37.74 0 0 Z M26 58 C22.05640935 63.77454345 21.36674229 69.12463054 22 76 C23.47726567 82.08285863 26.27630179 86.53988549 30.9375 90.75 C36.17226899 93.92258726 43.3182255 93.77719032 49.18359375 92.5390625 C54.93188273 90.69178627 58.13391543 87.56662938 60.96875 82.1484375 C63.73750218 75.71365234 64.02014215 69.38580014 61.75 62.75 C59.32174905 57.16169644 56.84445764 54.14741946 51.1875 51.6875 C41.42346015 48.17073016 32.71722407 49.93933112 26 58 Z " fill="#020102" transform="translate(258,66)"/>
<path d="M0 0 C0.89460938 -0.00128906 1.78921875 -0.00257812 2.7109375 -0.00390625 C3.65195313 -0.00003906 4.59296875 0.00382812 5.5625 0.0078125 C6.97402344 0.00201172 6.97402344 0.00201172 8.4140625 -0.00390625 C9.75597656 -0.00197266 9.75597656 -0.00197266 11.125 0 C11.95128906 0.00112793 12.77757813 0.00225586 13.62890625 0.00341797 C15.5625 0.1328125 15.5625 0.1328125 16.5625 1.1328125 C16.65108646 3.87175335 16.67773479 6.5853452 16.66015625 9.32421875 C16.6587413 10.14405746 16.65732635 10.96389618 16.65586853 11.80857849 C16.65025289 14.43752632 16.63769779 17.06639023 16.625 19.6953125 C16.61998701 21.47330607 16.61542376 23.25130096 16.61132812 25.02929688 C16.60027839 29.39716795 16.58300331 33.76497598 16.5625 38.1328125 C17.79226562 37.50052734 17.79226562 37.50052734 19.046875 36.85546875 C20.66335937 36.03369141 20.66335937 36.03369141 22.3125 35.1953125 C23.37984375 34.65003906 24.4471875 34.10476562 25.546875 33.54296875 C34.35639079 29.4234931 45.89124581 29.93858768 55.0625 32.7578125 C65.49440366 36.80052855 72.20089968 43.73497776 76.875 53.8203125 C81.20325108 63.80998904 81.14103277 77.31035865 78 87.6328125 C73.82661886 98.16841104 67.72516142 105.34938914 57.421875 110.125 C46.75899105 114.39829319 34.0289878 114.61726895 23.33203125 110.21484375 C19.61545534 108.39490695 16.10334864 106.27194826 12.5625 104.1328125 C10.99048828 105.10734375 10.99048828 105.10734375 9.38671875 106.1015625 C8.00802546 106.94566043 6.62910746 107.78939141 5.25 108.6328125 C4.55970703 109.06207031 3.86941406 109.49132812 3.15820312 109.93359375 C2.15756836 110.54267578 2.15756836 110.54267578 1.13671875 111.1640625 C0.52401123 111.54111328 -0.08869629 111.91816406 -0.7199707 112.30664062 C-2.4375 113.1328125 -2.4375 113.1328125 -5.4375 113.1328125 C-5.46083003 98.54710055 -5.47841327 83.96139147 -5.48931217 69.37566471 C-5.49447491 62.60370829 -5.50151718 55.83176345 -5.51293945 49.05981445 C-5.52394714 42.53056824 -5.52977625 36.00132956 -5.53237724 29.47207451 C-5.53423199 26.97487638 -5.53785354 24.47767895 -5.54323006 21.98048592 C-5.55043684 18.49617181 -5.5514911 15.01190819 -5.55102539 11.52758789 C-5.55462067 10.48390045 -5.55821594 9.44021301 -5.56192017 8.36489868 C-5.5605455 7.42113876 -5.55917084 6.47737885 -5.55775452 5.50502014 C-5.55867631 4.68001542 -5.5595981 3.8550107 -5.56054783 3.00500584 C-5.31889478 -0.67178575 -3.16558565 0.0043212 0 0 Z M20.5625 57.1328125 C15.99974103 63.6510396 15.86331785 70.36190236 16.5625 78.1328125 C18.27652834 84.34874662 22.27704098 88.58873441 27.5625 92.1328125 C34.00439274 94.28011008 41.95513472 94.32213701 48.125 91.5078125 C54.44775952 85.34717502 57.5541133 80.70004322 57.9375 71.8203125 C57.80123176 65.56049039 56.30310337 60.3630914 52.20703125 55.53515625 C47.20824957 50.93842136 41.13628708 49.68761075 34.54296875 49.87890625 C29.02872987 50.58585995 24.53311124 53.38279077 20.5625 57.1328125 Z " fill="#2491E8" transform="translate(103.4375,68.8671875)"/>
<path d="M0 0 C1.375 1.875 1.375 1.875 1.23828125 3.6953125 C0.05330968 6.68723166 -1.77146999 8.38162342 -4.0625 10.625 C-4.86558594 11.42421875 -5.66867187 12.2234375 -6.49609375 13.046875 C-8.625 14.875 -8.625 14.875 -10.625 14.875 C-10.625 15.535 -10.625 16.195 -10.625 16.875 C-15.48700666 16.18408326 -18.27165258 14.21647709 -22.1484375 11.34765625 C-30.49306275 6.38563146 -41.47518553 6.67688571 -50.79296875 8.4921875 C-59.52223053 11.27471664 -66.20504337 16.6702845 -70.5625 24.75 C-75.38176426 35.72258091 -76.04730512 47.68194469 -72.125 59.125 C-68.1446376 67.86449136 -61.52118272 74.40699657 -52.625 77.875 C-42.31261464 80.86326966 -29.03017736 80.03924048 -19.625 74.875 C-16.81089268 73.0289456 -14.17669767 71.06843639 -11.625 68.875 C-7.86668266 70.41444806 -5.64711168 72.7002091 -2.9375 75.6875 C-2.14988281 76.53957031 -1.36226562 77.39164062 -0.55078125 78.26953125 C1.42027347 80.93625234 2.02988669 82.61689639 2.375 85.875 C-10.89919371 97.47912161 -25.38087739 102.61645953 -43.1171875 102.16015625 C-60.60445214 100.73858574 -75.37189705 94.60778678 -86.875 81.1875 C-95.496645 69.84323026 -99.02629598 57.6012737 -98.9375 43.5625 C-98.93258545 42.64041748 -98.9276709 41.71833496 -98.92260742 40.76831055 C-98.65588351 25.21488715 -93.44507486 12.16238706 -82.625 0.875 C-58.66894163 -20.67858834 -24.54234039 -19.86760889 0 0 Z " fill="#020202" transform="translate(553.625,78.125)"/>
<path d="M0 0 C1.70304679 1.28654078 3.38198395 2.60803031 5 4 C5.66 1.69 6.32 -0.62 7 -3 C10.14581423 -3.02888514 13.29159469 -3.04675923 16.4375 -3.0625 C17.78424805 -3.07506836 17.78424805 -3.07506836 19.15820312 -3.08789062 C20.01220703 -3.09111328 20.86621094 -3.09433594 21.74609375 -3.09765625 C22.53685303 -3.10289307 23.3276123 -3.10812988 24.14233398 -3.11352539 C26 -3 26 -3 27 -2 C27.09496708 0.40348286 27.12558862 2.77810982 27.11352539 5.18188477 C27.11367142 5.93305573 27.11381744 6.68422668 27.1139679 7.4581604 C27.11326863 9.95260459 27.10547564 12.44697503 27.09765625 14.94140625 C27.09579212 16.66633564 27.09436819 18.39126557 27.09336853 20.11619568 C27.08954297 24.66512503 27.07971238 29.21402267 27.06866455 33.76293945 C27.05845124 38.40120006 27.05387108 43.03946577 27.04882812 47.67773438 C27.03809014 56.78517022 27.02101327 65.89258248 27 75 C23.51371731 76.16209423 23.13629782 75.88616059 19.98828125 74.34765625 C19.23095703 73.98349609 18.47363281 73.61933594 17.69335938 73.24414062 C16.90767578 72.85419922 16.12199219 72.46425781 15.3125 72.0625 C14.51521484 71.67642578 13.71792969 71.29035156 12.89648438 70.89257812 C10.92653557 69.93709398 8.96150061 68.97267894 7 68 C6.24940308 68.62962646 6.24940308 68.62962646 5.48364258 69.27197266 C-3.44099541 76.61596591 -12.70918168 78.87311413 -24.1171875 78.390625 C-35.42289784 77.25322959 -43.77832806 72.07199846 -51.1015625 63.5703125 C-58.83700692 53.09722108 -59.88859983 41.67819197 -59 29 C-56.70071326 17.05684774 -51.1882818 6.91796913 -41 0 C-27.45057317 -6.80574264 -13.56598091 -7.00417492 0 0 Z M-33 23 C-37.03417531 29.32020799 -36.85537686 36.69575247 -36 44 C-34.32603445 48.20031847 -32.4515903 50.91656344 -29 53.8125 C-28.319375 54.39644531 -27.63875 54.98039062 -26.9375 55.58203125 C-22.25661646 59.00775852 -16.53804063 58.53789451 -11 58 C-5.05897808 56.25264061 -1.47822726 53.01273929 2 48 C4.99977927 41.82150725 5.17859371 34.18979846 3.32421875 27.59765625 C2.4657583 25.51927943 2.4657583 25.51927943 1 23 C0.34 23 -0.32 23 -1 23 C-1.20625 22.401875 -1.4125 21.80375 -1.625 21.1875 C-3.62373312 18.00769731 -5.48543716 17.31796106 -9 16 C-18.71390464 13.87203761 -26.04939246 15.88775042 -33 23 Z " fill="#020202" transform="translate(620,101)"/>
<path d="M0 0 C0.80953125 0.68707031 1.6190625 1.37414062 2.453125 2.08203125 C22.39229063 19.48177484 37.78470867 41.41851256 45 67 C45.3196875 68.0828125 45.639375 69.165625 45.96875 70.28125 C50.43264784 87.64085271 49.87812284 106.63943093 40.78515625 122.30078125 C33.30754935 133.60718467 23.22298661 141.63853833 10.08984375 145.34765625 C1.51623974 147.01754775 -13.57473652 148.95017565 -21 144 C-17.45732047 141.84282385 -14.34321886 141.6824306 -10.25 141.375 C0.60785256 140.19395157 11.22515965 135.55534858 18.75 127.5 C28.58791395 114.78638812 30.21771402 99.63615391 29 84 C25.11522681 54.66845672 6.03417755 27.71438917 -16.640625 9.4453125 C-36.89216886 -5.72497942 -59.55588663 -14.21586908 -85 -12 C-97.66714964 -9.76684713 -107.51340261 -3.43395257 -115 7 C-116.72850736 10.15040587 -118.29351944 13.31974134 -119.7734375 16.59375 C-121 19 -121 19 -123 20 C-125.28396645 11.19491553 -120.71534878 2.49484548 -116.66015625 -5.20703125 C-109.39906598 -17.42274782 -97.4914966 -24.32413849 -83.90625 -27.7890625 C-54.07211349 -33.32757794 -22.23169435 -19.07130643 0 0 Z " fill="#2590E8" transform="translate(175,57)"/>
<path d="M0 0 C7.2486581 6.80731914 11.27348575 14.96896703 11.9178772 24.96313477 C11.97251902 28.10878932 11.96712625 31.24854149 11.9375 34.39453125 C11.9346701 35.53740601 11.93184021 36.68028076 11.92892456 37.85778809 C11.91778775 41.48472857 11.89269491 45.11141621 11.8671875 48.73828125 C11.85714931 51.20702767 11.84802493 53.67577798 11.83984375 56.14453125 C11.81786965 62.17587771 11.78338453 68.2070367 11.7421875 74.23828125 C4.4821875 74.23828125 -2.7778125 74.23828125 -10.2578125 74.23828125 C-10.96125152 70.72108614 -11.38392058 68.12094604 -11.3996582 64.65087891 C-11.40669266 63.77291656 -11.41372711 62.89495422 -11.42097473 61.99038696 C-11.42513901 61.0538327 -11.42930328 60.11727844 -11.43359375 59.15234375 C-11.45678858 57.14972903 -11.48090578 55.14712482 -11.50585938 53.14453125 C-11.54096503 50.00220654 -11.57032535 46.86027044 -11.58374023 43.71777344 C-11.59925659 40.6746582 -11.63948153 37.63266158 -11.68359375 34.58984375 C-11.68168533 33.65733795 -11.67977692 32.72483215 -11.67781067 31.7640686 C-11.78990542 25.7533939 -12.7666156 22.17148536 -16.2578125 17.23828125 C-20.72737581 13.87219933 -26.94858493 14.76919287 -32.2578125 15.23828125 C-36.83964288 16.92632402 -39.96207502 18.86581263 -42.31225586 23.16894531 C-43.7216634 27.74397025 -43.59661321 32.21039318 -43.63671875 36.97265625 C-43.65371323 38.00642395 -43.6707077 39.04019165 -43.68821716 40.10528564 C-43.7412587 43.39955588 -43.78162473 46.6938136 -43.8203125 49.98828125 C-43.86419494 53.29696905 -43.91081394 56.60555791 -43.96311951 59.91412354 C-43.99516047 61.97178712 -44.02202408 64.02953877 -44.04335022 66.08734131 C-44.05684006 67.01210266 -44.0703299 67.93686401 -44.08422852 68.88964844 C-44.09374039 69.70729675 -44.10325226 70.52494507 -44.11305237 71.36737061 C-44.2578125 73.23828125 -44.2578125 73.23828125 -45.2578125 74.23828125 C-52.5178125 74.23828125 -59.7778125 74.23828125 -67.2578125 74.23828125 C-67.2578125 48.16828125 -67.2578125 22.09828125 -67.2578125 -4.76171875 C-60.9878125 -4.76171875 -54.7178125 -4.76171875 -48.2578125 -4.76171875 C-47.2678125 -2.45171875 -46.2778125 -0.14171875 -45.2578125 2.23828125 C-44.74992188 1.82835938 -44.24203125 1.4184375 -43.71875 0.99609375 C-31.39275373 -8.65234528 -12.80979133 -9.9951832 0 0 Z " fill="#020202" transform="translate(855.2578125,102.76171875)"/>
<path d="M0 0 C7.26 0 14.52 0 22 0 C23.56330158 1.56330158 23.12596131 3.07802659 23.12698364 5.25158691 C23.12980347 6.16865921 23.13262329 7.08573151 23.13552856 8.03059387 C23.13350433 9.04465805 23.1314801 10.05872223 23.12939453 11.10351562 C23.13114685 12.16519455 23.13289917 13.22687347 23.13470459 14.32072449 C23.13912548 17.84924935 23.13618428 21.37772457 23.1328125 24.90625 C23.13348547 27.34623219 23.13445544 29.78621432 23.13571167 32.22619629 C23.13718897 37.34758134 23.13503307 42.46894899 23.13037109 47.59033203 C23.1246738 54.17162715 23.12795263 60.75288149 23.13394356 67.33417511 C23.13754832 72.37486074 23.13641098 77.41553662 23.13381577 82.45622253 C23.13314626 84.88364161 23.13397573 87.31106156 23.13629532 89.73847961 C23.13882045 93.12450523 23.13498322 96.51046379 23.12939453 99.89648438 C23.13141876 100.91054855 23.13344299 101.92461273 23.13552856 102.96940613 C23.13129883 104.34501457 23.13129883 104.34501457 23.12698364 105.74841309 C23.12660662 106.54999596 23.12622959 107.35157883 23.12584114 108.17745209 C23 110 23 110 22 111 C14.74 111 7.48 111 0 111 C0 74.37 0 37.74 0 0 Z " fill="#020202" transform="translate(665,66)"/>
<path d="M0 0 C7.26 0 14.52 0 22 0 C22.79660941 3.18643763 23.12543676 5.31179323 23.12698364 8.49845886 C23.12980347 9.39441269 23.13262329 10.29036652 23.13552856 11.21347046 C23.13350433 12.18869659 23.1314801 13.16392273 23.12939453 14.16870117 C23.13114685 15.20155746 23.13289917 16.23441376 23.13470459 17.29856873 C23.139107 20.71338581 23.1361914 24.12815114 23.1328125 27.54296875 C23.13348585 29.91140249 23.13445613 32.27983615 23.13571167 34.64826965 C23.13718633 39.6104905 23.13504092 44.57269335 23.13037109 49.53491211 C23.12466462 55.91097789 23.12796009 62.28700166 23.13394356 68.66306591 C23.13754745 73.55190857 23.13641154 78.44074117 23.13381577 83.32958412 C23.1331465 85.68164385 23.13397489 88.03370449 23.13629532 90.38576317 C23.13882004 93.66369441 23.13498423 96.94155637 23.12939453 100.21948242 C23.13141876 101.20078125 23.13344299 102.18208008 23.13552856 103.19311523 C23.13129883 104.52435677 23.13129883 104.52435677 23.12698364 105.88249207 C23.12660662 106.65805545 23.12622959 107.43361883 23.12584114 108.23268414 C23 110 23 110 22 111 C14.74 111 7.48 111 0 111 C0 74.37 0 37.74 0 0 Z " fill="#030303" transform="translate(706,66)"/>
<path d="M0 0 C7.26 0 14.52 0 22 0 C23.4640751 2.9281502 23.13879545 5.87106758 23.12939453 9.08007812 C23.13114685 9.80867538 23.13289917 10.53727264 23.13470459 11.28794861 C23.13911491 13.70240646 23.13618799 16.11679137 23.1328125 18.53125 C23.13348577 20.20511896 23.134456 21.87898782 23.13571167 23.55285645 C23.13718753 27.06340464 23.13503766 30.57392741 23.13037109 34.08447266 C23.12467387 38.5906705 23.12795347 43.09680879 23.13394356 47.60300446 C23.13755218 51.06016491 23.13640919 54.51731117 23.13381577 57.97447205 C23.13314733 59.63630683 23.13397202 61.2981429 23.13629532 62.9599762 C23.13882675 65.27999294 23.13497429 67.5999124 23.12939453 69.91992188 C23.13141876 70.61089462 23.13344299 71.30186737 23.13552856 72.01377869 C23.11426463 76.77147075 23.11426463 76.77147075 22 79 C14.74 79 7.48 79 0 79 C0 52.93 0 26.86 0 0 Z " fill="#030202" transform="translate(747,98)"/>
<path d="M0 0 C-1.01620005 3.04860014 -1.77391571 3.86666922 -4 6 C-4.33 6.66 -4.66 7.32 -5 8 C-4.01 8 -3.02 8 -2 8 C-2 8.66 -2 9.32 -2 10 C-1.01 10 -0.02 10 1 10 C1.33 7.69 1.66 5.38 2 3 C3.98 3 5.96 3 8 3 C8.33 3.99 8.66 4.98 9 6 C9.825 6.2475 10.65 6.495 11.5 6.75 C17.73615706 8.97719895 23.37887399 13.41311986 27 19 C27 19.66 27 20.32 27 21 C27.61875 21.2475 28.2375 21.495 28.875 21.75 C31 23 31 23 31.9375 24.9375 C32.88291395 27.2228428 32.88291395 27.2228428 35.4375 28.4375 C38.44817601 30.27327805 39.2953931 31.96135292 41 35 C41.721875 35.70125 42.44375 36.4025 43.1875 37.125 C45 39 45 39 45 42 C45.66 42 46.32 42 47 42 C47.2475 42.78375 47.495 43.5675 47.75 44.375 C48.70898813 47.11447999 48.70898813 47.11447999 50.90625 47.8671875 C54.96489816 50.06309788 56.41723923 54.84286929 58 59 C58.3125 62.625 58.3125 62.625 58 65 C56.515 65.495 56.515 65.495 55 66 C55 68.31 55 70.62 55 73 C51.94736336 73.98120464 50.05263664 73.98120464 47 73 C46.67 73.66 46.34 74.32 46 75 C45.6596875 73.7625 45.6596875 73.7625 45.3125 72.5 C44.00387557 69.01033486 42.3859124 66.32241431 40.3671875 63.22265625 C38.38131711 59.99419839 36.75767045 56.61119243 35.11328125 53.19921875 C33.95647927 50.80568247 33.95647927 50.80568247 32 48 C32 47.01 32 46.02 32 45 C31.34 45 30.68 45 30 45 C30 44.01 30 43.02 30 42 C29.01 42 28.02 42 27 42 C26.505 40.948125 26.01 39.89625 25.5 38.8125 C23.36424028 35.08233633 21.09417353 33.64728341 17.41796875 31.578125 C14.2665833 29.52132416 11.5606856 27.05357886 8.8125 24.5 C8.31363281 24.0369043 7.81476563 23.57380859 7.30078125 23.09667969 C5.85686055 21.74204398 4.42826398 20.37113342 3 19 C2.05511719 18.1028125 1.11023438 17.205625 0.13671875 16.28125 C-2 14 -2 14 -2 12 C-3.1446875 11.566875 -3.1446875 11.566875 -4.3125 11.125 C-7 10 -7 10 -10 8 C-9.8125 5.6875 -9.8125 5.6875 -9 3 C-5.68035674 0.39811744 -4.30683959 0 0 0 Z " fill="#2590E7" transform="translate(156,48)"/>
<path d="M0 0 C3.4812511 2.32083406 4.99212405 4.09421919 6.8125 7.875 C7.55116757 11.72711686 7.71671657 15.19165611 5.82421875 18.71484375 C3.02152553 22.26376488 0.13980111 24.51109473 -4.3359375 25.2109375 C-10.87217643 25.32560836 -14.17056051 23.59024554 -19.0625 19.1875 C-20.87327293 15.46535564 -20.81340893 11.92582636 -20.1875 7.875 C-16.10967565 -0.59432749 -8.75465874 -3.08987955 0 0 Z " fill="#030303" transform="translate(765.1875,65.125)"/>
<path d="M0 0 C0.80953125 0.68707031 1.6190625 1.37414062 2.453125 2.08203125 C14.20057572 12.33334438 23.82397065 23.74755784 32 37 C32 37.66 32 38.32 32 39 C31.01 38.67 30.02 38.34 29 38 C28.67 36.35 28.34 34.7 28 33 C27.34 33 26.68 33 26 33 C24.34375 31.171875 24.34375 31.171875 22.5 28.75 C21.8915625 27.96109375 21.283125 27.1721875 20.65625 26.359375 C19 24 19 24 17.90234375 21.76171875 C17.13341932 19.82440109 17.13341932 19.82440109 15.0625 19.0625 C13 18 13 18 11.625 15.6875 C10.11322715 13.18726029 9.0427593 12.07790432 6.8125 10.3125 C5.884375 9.549375 4.95625 8.78625 4 8 C4 7.34 4 6.68 4 6 C2.15937735 4.25016678 2.15937735 4.25016678 -0.1875 2.5 C-0.96480469 1.8915625 -1.74210937 1.283125 -2.54296875 0.65625 C-4.9488782 -1.09150349 -4.9488782 -1.09150349 -7.73828125 -2.09375 C-10 -3 -10 -3 -11 -5 C-14.02934491 -5.65772428 -14.02934491 -5.65772428 -17 -6 C-17.33 -3.69 -17.66 -1.38 -18 1 C-18.99 1 -19.98 1 -21 1 C-21 0.34 -21 -0.32 -21 -1 C-21.99 -1 -22.98 -1 -24 -1 C-22.79641403 -4.42559084 -21.64107354 -6.53258609 -19 -9 C-24.74148211 -7.52490687 -24.74148211 -7.52490687 -28.5 -3.3125 C-28.665 -2.549375 -28.83 -1.78625 -29 -1 C-28.2575 -0.7525 -27.515 -0.505 -26.75 -0.25 C-23.79875938 1.09147301 -22.15185026 2.60905526 -20 5 C-23.27258231 5 -24.28338394 4.47607505 -27.0546875 2.8828125 C-27.83457031 2.44066406 -28.61445313 1.99851562 -29.41796875 1.54296875 C-30.63419922 0.84107422 -30.63419922 0.84107422 -31.875 0.125 C-38.72652612 -3.87257148 -38.72652612 -3.87257148 -46 -7 C-43.13488924 -8.10196568 -42.04121148 -8.01402944 -39.0625 -7 C-35.74674466 -5.91730438 -34.21357478 -5.66101051 -31 -7 C-29.40357281 -9.68490027 -28.87259718 -11.21434929 -29.375 -14.3125 C-29.684375 -15.1478125 -29.684375 -15.1478125 -30 -16 C-31.65 -16.33 -33.3 -16.66 -35 -17 C-35 -17.99 -35 -18.98 -35 -20 C-36.051875 -20.12375 -37.10375 -20.2475 -38.1875 -20.375 C-42 -21 -42 -21 -44.4375 -22 C-51.83996662 -24.88876746 -60.60877475 -24.37468458 -68.46362305 -24.66748047 C-69.86496096 -24.72257553 -71.26603734 -24.78477282 -72.66674805 -24.85400391 C-74.71630747 -24.95508069 -76.76574136 -25.03449949 -78.81640625 -25.109375 C-80.02756104 -25.16061523 -81.23871582 -25.21185547 -82.48657227 -25.26464844 C-86.65553817 -24.95062168 -89.22496338 -23.73661466 -93 -22 C-95.4375 -22.3125 -95.4375 -22.3125 -97 -23 C-64.48879337 -38.11807803 -25.39189096 -21.7822594 0 0 Z " fill="#278FE1" transform="translate(175,57)"/>
<path d="M0 0 C1.18154663 -0.0141394 1.18154663 -0.0141394 2.38696289 -0.02856445 C7.93825667 0.00213768 13.00908284 0.84658169 18.375 2.25 C18.375 2.91 18.375 3.57 18.375 4.25 C17.5228894 4.34704224 17.5228894 4.34704224 16.65356445 4.44604492 C5.23416102 5.79079424 -5.12813446 7.32289985 -15.625 12.25 C-14.625 9.25 -14.625 9.25 -11.625 7.25 C-4.93435421 4.57374168 1.21526776 3.83869623 8.375 4.25 C8.375 3.26 8.375 2.27 8.375 1.25 C-12.20969024 2.38590886 -28.67784635 4.8357478 -43.625 20.25 C-44.285 20.25 -44.945 20.25 -45.625 20.25 C-46.75380057 23.56114834 -47.83802675 26.83978257 -48.625 30.25 C-49.23085938 30.29511719 -49.83671875 30.34023438 -50.4609375 30.38671875 C-52.88221064 31.08979174 -52.88221064 31.08979174 -54.0390625 33.76953125 C-57.92847009 44.34621059 -59.76412762 54.0197009 -59.875 65.25 C-59.88442627 65.98057617 -59.89385254 66.71115234 -59.90356445 67.46386719 C-59.87968859 71.33626213 -59.43548635 73.87329926 -57.625 77.25 C-57.5 79.8359375 -57.5 79.8359375 -57.625 82.625 C-57.69459957 87.02137288 -57.33384573 90.14877024 -55.625 94.25 C-54.91113287 96.2063229 -54.20326341 98.16484028 -53.5 100.125 C-52.87578415 101.83362002 -52.25104585 103.54204966 -51.625 105.25 C-50.635 105.25 -49.645 105.25 -48.625 105.25 C-48.728125 106.384375 -48.83125 107.51875 -48.9375 108.6875 C-48.94710441 114.12359424 -46.45045719 117.76683238 -43.625 122.25 C-43.00625 123.36375 -42.3875 124.4775 -41.75 125.625 C-34.29317523 138.7628814 -34.29317523 138.7628814 -24.625 150.25 C-24.955 150.91 -25.285 151.57 -25.625 152.25 C-48.6845552 128.48191098 -63.44010463 94.34720168 -63.09570312 61.1784668 C-62.54273889 44.57336262 -56.68462972 28.46959313 -45 16.4296875 C-31.99996972 4.49873866 -17.30841832 0.15584112 0 0 Z " fill="#17507D" transform="translate(84.625,22.75)"/>
<path d="M0 0 C0.99 0.495 0.99 0.495 2 1 C0.86703511 17.71123211 -5.78642206 31.5569948 -18 43 C-34.41741324 55.67049611 -53.14339426 58.99025188 -73.30859375 56.53515625 C-108.95520138 51.34040367 -137.57972041 30.31735108 -162 5 C-161.34 4.34 -160.68 3.68 -160 3 C-158.29115995 4.62339805 -156.62553283 6.29319053 -155 8 C-155 8.66 -155 9.32 -155 10 C-154.01 10.33 -153.02 10.66 -152 11 C-150.85040713 12.11578132 -149.70648441 13.23823033 -148.59765625 14.39453125 C-146.57286957 16.42921909 -144.45233186 18.3368598 -142.3125 20.25 C-141.54550781 20.93578125 -140.77851563 21.6215625 -139.98828125 22.328125 C-138.10201336 24.04622145 -138.10201336 24.04622145 -136 25 C-136 25.66 -136 26.32 -136 27 C-135.236875 27.268125 -134.47375 27.53625 -133.6875 27.8125 C-131 29 -131 29 -129.625 30.40625 C-126.12351869 33.84039513 -121.31320744 35.75532028 -117 38 C-116.39397949 38.32194336 -115.78795898 38.64388672 -115.16357422 38.97558594 C-97.53575738 48.32142619 -79.53128072 54.19995564 -59.4375 54.3125 C-58.60452393 54.31805908 -57.77154785 54.32361816 -56.91333008 54.3293457 C-51.93360895 54.2705004 -47.78684855 53.49885233 -43 52 C-40.66784156 51.92596322 -38.33139212 51.90484114 -36 52 C-35.67 51.01 -35.34 50.02 -35 49 C-33.21484375 48.04296875 -33.21484375 48.04296875 -30.9375 47.1875 C-24.96163952 44.70390193 -20.18958371 41.18958371 -15.625 36.625 C-15.08875 36.08875 -14.5525 35.5525 -14 35 C-13.34 35 -12.68 35 -12 35 C-11.8453125 34.195625 -11.8453125 34.195625 -11.6875 33.375 C-10.81790961 30.37096047 -9.44417604 27.76800408 -8 25 C-7.67 24.34 -7.34 23.68 -7 23 C-6.34 23 -5.68 23 -5 23 C-5 21.35 -5 19.7 -5 18 C-5.99 18.33 -6.98 18.66 -8 19 C-8.309375 19.66 -8.61875 20.32 -8.9375 21 C-9.288125 21.66 -9.63875 22.32 -10 23 C-12.06640625 23.625 -12.06640625 23.625 -14 24 C-13.63648438 23.56171875 -13.27296875 23.1234375 -12.8984375 22.671875 C-8.30574553 16.87801744 -5.15859453 10.65968727 -2 4 C-1.33687236 2.66490302 -0.67173152 1.33078886 0 0 Z " fill="#104B80" transform="translate(222,172)"/>
<path d="M0 0 C0 0.99 0 1.98 0 3 C-0.90621094 3.09796875 -1.81242187 3.1959375 -2.74609375 3.296875 C-13.14486569 4.57333801 -20.79334874 6.09026081 -28 14 C-29.66168261 15.44325844 -31.32891364 16.88014026 -33 18.3125 C-43.07344789 27.38458141 -47.65603881 39.61142456 -49 53 C-49.39010482 62.71260973 -48.92787489 72.32359041 -48 82 C-48.66 81.67 -49.32 81.34 -50 81 C-51.3134251 73.75841298 -51.43520525 66.34009216 -51.75 59 C-51.81832031 57.76765625 -51.88664062 56.5353125 -51.95703125 55.265625 C-52.24956328 48.27485961 -51.85271984 43.38027663 -49 37 C-49.33 36.34 -49.66 35.68 -50 35 C-49.34 35 -48.68 35 -48 35 C-47.7525 34.29875 -47.505 33.5975 -47.25 32.875 C-46 30 -46 30 -43.8125 26.875 C-43.214375 25.92625 -42.61625 24.9775 -42 24 C-42.33 23.01 -42.66 22.02 -43 21 C-43.66 20.67 -44.32 20.34 -45 20 C-45.85056945 16.44307323 -46.16909807 14.50729422 -45 11 C-30.99579468 1.31074355 -16.54698643 -0.29315527 0 0 Z " fill="#055DA8" transform="translate(93,24)"/>
<path d="M0 0 C1.82413929 2.73620894 2.59377433 4.86174605 3.4440918 7.98681641 C9.12479263 28.55908653 21.3238001 46.73380211 36 62 C36.84175781 62.89332031 37.68351562 63.78664062 38.55078125 64.70703125 C60.96480392 87.89954385 91.28207799 104.37354719 124 105 C136.47644725 104.74323495 148.82689888 101.28086346 158.51171875 93.234375 C160 92 160 92 162 91 C161.6886386 93.90603977 161.06619741 94.93580857 158.9375 97 C143.03411081 107.82783945 123.67471647 109.5105222 105.02734375 106.234375 C95.17414899 104.18047261 85.88342315 100.7136531 77 96 C76.13117188 95.54496094 75.26234375 95.08992188 74.3671875 94.62109375 C66.57103298 90.47353955 66.57103298 90.47353955 63.4375 87.875 C60.91660609 85.93585084 58.84815079 85.13625662 55.875 84.0625 C51.51146271 82.41733719 50.15002921 81.19767609 48 77 C46.33788244 75.70396943 46.33788244 75.70396943 44.4375 74.5 C41.19857971 72.35201312 40.2976053 70.69318431 39 67 C38.44183594 66.74476563 37.88367188 66.48953125 37.30859375 66.2265625 C33.99362569 64.46531043 31.73881407 61.80934073 29.25 59.0625 C28.49009766 58.25522461 28.49009766 58.25522461 27.71484375 57.43164062 C24 53.37134645 24 53.37134645 24 50 C23.34 50 22.68 50 22 50 C20.16882554 47.66168436 18.475913 45.32951783 16.8125 42.875 C16.31999756 42.15086914 15.82749512 41.42673828 15.32006836 40.68066406 C7.41442415 28.83578133 -1.12965347 14.68549508 0 0 Z " fill="#0E4F80" transform="translate(45,106)"/>
<path d="M0 0 C0.66 0.33 1.32 0.66 2 1 C-6.37806028 14.14628109 -16.18506105 22.00347875 -31.1706543 26.38696289 C-36.24130657 27.48562609 -41.27120867 27.39198141 -46.4375 27.3125 C-47.51193359 27.31572266 -48.58636719 27.31894531 -49.69335938 27.32226562 C-57.59837761 27.26774826 -57.59837761 27.26774826 -61 25 C-57.45732047 22.84282385 -54.34321886 22.6824306 -50.25 22.375 C-39.25655859 21.17920307 -28.62047222 16.51896336 -21.1875 8.1875 C-20.11426298 6.79990523 -19.0503084 5.40502997 -18 4 C-17.01821877 2.98210727 -16.02430511 1.97508925 -15 1 C-15.44508041 6.04424468 -17.60980925 8.44443409 -21 12 C-21.66 12 -22.32 12 -23 12 C-22.814375 12.78375 -22.62875 13.5675 -22.4375 14.375 C-22 17 -22 17 -23 19 C-22.01 19.33 -21.02 19.66 -20 20 C-19.34 18.35 -18.68 16.7 -18 15 C-18.66 14.67 -19.32 14.34 -20 14 C-18.02 13.34 -16.04 12.68 -14 12 C-13.505 12.99 -13.505 12.99 -13 14 C-7.53304842 10.53058842 -4.84990486 7.81380592 -2 2 C-1.34 2 -0.68 2 0 2 C0 1.34 0 0.68 0 0 Z " fill="#2C88D2" transform="translate(215,176)"/>
<path d="M0 0 C0.89460938 -0.00128906 1.78921875 -0.00257812 2.7109375 -0.00390625 C3.65195313 -0.00003906 4.59296875 0.00382812 5.5625 0.0078125 C6.97402344 0.00201172 6.97402344 0.00201172 8.4140625 -0.00390625 C9.75597656 -0.00197266 9.75597656 -0.00197266 11.125 0 C11.95128906 0.00112793 12.77757813 0.00225586 13.62890625 0.00341797 C15.5625 0.1328125 15.5625 0.1328125 16.5625 1.1328125 C16.65108646 3.87175335 16.67773479 6.5853452 16.66015625 9.32421875 C16.6587413 10.14405746 16.65732635 10.96389618 16.65586853 11.80857849 C16.65025289 14.43752632 16.63769779 17.06639023 16.625 19.6953125 C16.61998701 21.47330607 16.61542376 23.25130096 16.61132812 25.02929688 C16.60027839 29.39716795 16.58300331 33.76497598 16.5625 38.1328125 C17.79226562 37.50052734 17.79226562 37.50052734 19.046875 36.85546875 C20.66335937 36.03369141 20.66335937 36.03369141 22.3125 35.1953125 C23.37984375 34.65003906 24.4471875 34.10476562 25.546875 33.54296875 C30.73357975 31.11757961 35.13765799 31.00514205 40.8125 31.0703125 C41.55757812 31.07482422 42.30265625 31.07933594 43.0703125 31.08398438 C44.9010764 31.09572004 46.73179873 31.113654 48.5625 31.1328125 C48.5625 31.4628125 48.5625 31.7928125 48.5625 32.1328125 C47.70269531 32.14699219 46.84289062 32.16117188 45.95703125 32.17578125 C37.9714148 32.4979926 26.58243949 33.11287301 20.5625 39.1328125 C18.89632885 39.17345082 17.22861905 39.1755335 15.5625 39.1328125 C15.5625 39.7928125 15.5625 40.4528125 15.5625 41.1328125 C14.9025 41.1328125 14.2425 41.1328125 13.5625 41.1328125 C12.43665641 36.62943815 12.43665641 36.62943815 13.02685547 34.30029297 C13.66725708 31.70891396 13.69213127 29.3721795 13.6953125 26.703125 C13.69660156 25.66027344 13.69789062 24.61742187 13.69921875 23.54296875 C13.69341797 21.91681641 13.69341797 21.91681641 13.6875 20.2578125 C13.69136719 19.18144531 13.69523437 18.10507813 13.69921875 16.99609375 C13.69792969 15.95066406 13.69664063 14.90523437 13.6953125 13.828125 C13.69418457 12.87953613 13.69305664 11.93094727 13.69189453 10.95361328 C13.59341529 7.58430811 13.59341529 7.58430811 12.5625 2.1328125 C7.2825 2.1328125 2.0025 2.1328125 -3.4375 2.1328125 C-3.4375 37.7728125 -3.4375 73.4128125 -3.4375 110.1328125 C-1.7875 109.1428125 -0.1375 108.1528125 1.5625 107.1328125 C2.67625 106.6378125 2.67625 106.6378125 3.8125 106.1328125 C5.91387474 105.19001304 5.91387474 105.19001304 6.5625 102.1328125 C6.5625 102.7928125 6.5625 103.4528125 6.5625 104.1328125 C8.89325929 103.17415741 8.89325929 103.17415741 10.5625 100.1328125 C10.5625 100.7928125 10.5625 101.4528125 10.5625 102.1328125 C13.2025 102.1328125 15.8425 102.1328125 18.5625 102.1328125 C18.8925 103.7828125 19.2225 105.4328125 19.5625 107.1328125 C18.6653125 106.66875 18.6653125 106.66875 17.75 106.1953125 C15.47293228 105.03071546 15.47293228 105.03071546 12.5625 104.1328125 C9.9648633 105.53401518 7.53349767 106.97240067 5.0625 108.5703125 C3.72255984 109.42915034 2.37893961 110.28228073 1.03125 111.12890625 C0.43763672 111.51232178 -0.15597656 111.8957373 -0.76757812 112.29077148 C-2.4375 113.1328125 -2.4375 113.1328125 -5.4375 113.1328125 C-5.46083003 98.54710055 -5.47841327 83.96139147 -5.48931217 69.37566471 C-5.49447491 62.60370829 -5.50151718 55.83176345 -5.51293945 49.05981445 C-5.52394714 42.53056824 -5.52977625 36.00132956 -5.53237724 29.47207451 C-5.53423199 26.97487638 -5.53785354 24.47767895 -5.54323006 21.98048592 C-5.55043684 18.49617181 -5.5514911 15.01190819 -5.55102539 11.52758789 C-5.55462067 10.48390045 -5.55821594 9.44021301 -5.56192017 8.36489868 C-5.5605455 7.42113876 -5.55917084 6.47737885 -5.55775452 5.50502014 C-5.55867631 4.68001542 -5.5595981 3.8550107 -5.56054783 3.00500584 C-5.31889478 -0.67178575 -3.16558565 0.0043212 0 0 Z " fill="#357BAE" transform="translate(103.4375,68.8671875)"/>
<path d="M0 0 C-0.6875 1.875 -0.6875 1.875 -2 4 C-3.65204456 4.70211894 -5.31923769 5.36971413 -7 6 C-7.99 7.485 -7.99 7.485 -9 9 C-9.66 9 -10.32 9 -11 9 C-10.896875 9.763125 -10.79375 10.52625 -10.6875 11.3125 C-10.790625 12.199375 -10.89375 13.08625 -11 14 C-13.5 15.6875 -13.5 15.6875 -16 17 C-16 17.66 -16 18.32 -16 19 C-14.35 18.67 -12.7 18.34 -11 18 C-11 17.34 -11 16.68 -11 16 C-6.1108755 13.15344307 -1.47652259 10.54771291 4 9 C4.99773437 8.65710937 5.99546875 8.31421875 7.0234375 7.9609375 C11.81084227 6.59624479 16.55816779 6.74609631 21.5 6.8125 C22.86705078 6.8134668 22.86705078 6.8134668 24.26171875 6.81445312 C30.94683278 6.85786296 37.35489884 7.26597728 43.75 9.375 C44.48734375 9.60960937 45.2246875 9.84421875 45.984375 10.0859375 C48.17195585 11.07797998 49.42092082 12.2110432 51 14 C49.94425781 13.71125 48.88851562 13.4225 47.80078125 13.125 C30.75589065 8.74141528 12.63808672 7.00010838 -3.50390625 15.28515625 C-12.80649746 20.93596885 -18.35109116 28.8102352 -22.7734375 38.59375 C-24 41 -24 41 -26 42 C-28.28396645 33.19491553 -23.71534878 24.49484548 -19.66015625 16.79296875 C-15.93577147 10.52723907 -8.10378205 0 0 0 Z " fill="#2D8BDB" transform="translate(78,35)"/>
<path d="M0 0 C4.11943542 2.19703223 6.76119456 5.70077694 9.5703125 9.3125 C10.2303125 9.6425 10.8903125 9.9725 11.5703125 10.3125 C12.63663564 14.77898561 12.67597209 19.11258379 12.6328125 23.6875 C12.62378906 24.93273437 12.61476562 26.17796875 12.60546875 27.4609375 C12.59386719 28.40195313 12.58226562 29.34296875 12.5703125 30.3125 C11.9103125 30.3125 11.2503125 30.3125 10.5703125 30.3125 C10.61414063 30.90417969 10.65796875 31.49585938 10.703125 32.10546875 C10.69434476 34.79661341 10.50805971 36.77930958 9.5703125 39.3125 C5.0215611 42.97369015 -0.63429912 44.85496934 -6.4296875 45.3125 C-6.4296875 45.9725 -6.4296875 46.6325 -6.4296875 47.3125 C-14.19589643 47.17426651 -18.91935621 46.96058957 -24.4296875 41.3125 C-26.64556098 40.03397713 -26.64556098 40.03397713 -28.4296875 39.3125 C-28.0996875 38.3225 -27.7696875 37.3325 -27.4296875 36.3125 C-28.0896875 36.3125 -28.7496875 36.3125 -29.4296875 36.3125 C-29.7390625 35.508125 -30.0484375 34.70375 -30.3671875 33.875 C-31.19304095 31.42169595 -31.19304095 31.42169595 -32.4296875 30.3125 C-32.52948923 28.04347824 -32.55936559 25.77121075 -32.5546875 23.5 C-32.55855469 21.63408203 -32.55855469 21.63408203 -32.5625 19.73046875 C-32.45735923 17.02463998 -32.24112002 14.86915645 -31.4296875 12.3125 C-30.7696875 12.3125 -30.1096875 12.3125 -29.4296875 12.3125 C-29.3471875 11.57 -29.2646875 10.8275 -29.1796875 10.0625 C-28.28158951 6.76947405 -27.04552676 5.45273212 -24.4296875 3.3125 C-23.7696875 3.3125 -23.1096875 3.3125 -22.4296875 3.3125 C-22.4296875 2.6525 -22.4296875 1.9925 -22.4296875 1.3125 C-16.70142663 -2.38792692 -6.38328551 -1.80620297 0 0 Z M-26.4296875 7.3125 C-30.99244647 13.8307271 -31.12886965 20.54158986 -30.4296875 28.3125 C-28.71565916 34.52843412 -24.71514652 38.76842191 -19.4296875 42.3125 C-12.98779476 44.45979758 -5.03705278 44.50182451 1.1328125 41.6875 C7.45557202 35.52686252 10.5619258 30.87973072 10.9453125 22 C10.80904426 15.74017789 9.31091587 10.5427789 5.21484375 5.71484375 C0.21606207 1.11810886 -5.85590042 -0.13270175 -12.44921875 0.05859375 C-17.96345763 0.76554745 -22.45907626 3.56247827 -26.4296875 7.3125 Z " fill="#327EB8" transform="translate(150.4296875,118.6875)"/>
<path d="M0 0 C1.38975182 4.88626116 1.0139409 9.77129167 0.87304688 14.80078125 C0.81294363 18.83830542 1.06118974 21.487332 3 25 C3.125 27.5859375 3.125 27.5859375 3 30.375 C2.93040043 34.77137288 3.29115427 37.89877024 5 42 C5.71386713 43.9563229 6.42173659 45.91484028 7.125 47.875 C7.74921585 49.58362002 8.37395415 51.29204966 9 53 C9.99 53 10.98 53 12 53 C11.8453125 54.7015625 11.8453125 54.7015625 11.6875 56.4375 C11.67789559 61.87359424 14.17454281 65.51683238 17 70 C17.61875 71.11375 18.2375 72.2275 18.875 73.375 C26.33182477 86.5128814 26.33182477 86.5128814 36 98 C35.67 98.66 35.34 99.32 35 100 C14.62818031 79.00223054 -2.33608488 46.37341786 -2.05078125 16.62109375 C-1.6337688 4.90130641 -1.6337688 4.90130641 0 0 Z " fill="#155689" transform="translate(24,75)"/>
<path d="M0 0 C-3 1 -3 1 -5.234375 -0.109375 C-6.47960937 -0.92148437 -6.47960937 -0.92148437 -7.75 -1.75 C-21.79510276 -10.53833742 -37.28149651 -13.22554984 -53.61450195 -13.74291992 C-55.69528306 -13.81276124 -57.7738473 -13.90880656 -59.85351562 -14.00585938 C-61.19786083 -14.0536798 -62.54226198 -14.09995774 -63.88671875 -14.14453125 C-65.08514404 -14.18940674 -66.28356934 -14.23428223 -67.51831055 -14.28051758 C-71.65636454 -13.94711711 -74.247749 -12.72119772 -78 -11 C-80.4375 -11.3125 -80.4375 -11.3125 -82 -12 C-55.73856702 -24.21186274 -23.14745735 -15.740271 0 0 Z " fill="#3479B1" transform="translate(160,46)"/>
<path d="M0 0 C0.99 0.33 1.98 0.66 3 1 C2.41992188 1.42410156 1.83984375 1.84820312 1.2421875 2.28515625 C-11.26087724 11.67277087 -17.82774449 22.47225948 -20.5390625 38.0703125 C-21.82554655 49.03813418 -21.05145061 60.03487224 -20 71 C-20.66 70.67 -21.32 70.34 -22 70 C-23.3134251 62.75841298 -23.43520525 55.34009216 -23.75 48 C-23.81832031 46.76765625 -23.88664062 45.5353125 -23.95703125 44.265625 C-24.24956328 37.27485961 -23.85271984 32.38027663 -21 26 C-21.33 25.34 -21.66 24.68 -22 24 C-21.34 24 -20.68 24 -20 24 C-19.773125 23.34 -19.54625 22.68 -19.3125 22 C-17.6121185 18.11341372 -15.60376916 14.36320183 -13 11 C-12.34 11 -11.68 11 -11 11 C-10.67 10.01 -10.34 9.02 -10 8 C-8.22265625 6.2109375 -8.22265625 6.2109375 -6.0625 4.375 C-5.35222656 3.76398437 -4.64195313 3.15296875 -3.91015625 2.5234375 C-2 1 -2 1 0 0 Z " fill="#0C5288" transform="translate(65,35)"/>
<path d="M0 0 C0.33 0.99 0.66 1.98 1 3 C2.1490712 4.2981424 2.1490712 4.2981424 5 5 C5.33 5.66 5.66 6.32 6 7 C8.02463255 7.65213292 8.02463255 7.65213292 10 8 C7.14788651 11.01056424 4.7563292 13.25599001 1 15 C0.67 15.66 0.34 16.32 0 17 C-0.99 16.34 -1.98 15.68 -3 15 C-5.09506252 18.44708859 -5.09506252 18.44708859 -7 22 C-8.32 21.67 -9.64 21.34 -11 21 C-11 16.46838746 -10.73933611 14.79620812 -7.5625 11.375 C-6.716875 10.59125 -5.87125 9.8075 -5 9 C-2.3534665 6.3534665 -1.40058003 3.43778736 0 0 Z " fill="#2491E6" transform="translate(202,174)"/>
<path d="M0 0 C19.56071357 6.88952566 36.42767636 29.863429 47 47 C47 47.66 47 48.32 47 49 C46.01 48.67 45.02 48.34 44 48 C43.67 46.35 43.34 44.7 43 43 C42.34 43 41.68 43 41 43 C39.34375 41.171875 39.34375 41.171875 37.5 38.75 C36.8915625 37.96109375 36.283125 37.1721875 35.65625 36.359375 C34 34 34 34 32.90234375 31.76171875 C32.13341932 29.82440109 32.13341932 29.82440109 30.0625 29.0625 C28 28 28 28 26.625 25.6875 C25.11322715 23.18726029 24.0427593 22.07790432 21.8125 20.3125 C20.884375 19.549375 19.95625 18.78625 19 18 C19 17.34 19 16.68 19 16 C17.15937735 14.25016678 17.15937735 14.25016678 14.8125 12.5 C14.03519531 11.8915625 13.25789062 11.283125 12.45703125 10.65625 C10.0511218 8.90849651 10.0511218 8.90849651 7.26171875 7.90625 C5 7 5 7 4 5 C1.97536745 4.34786708 1.97536745 4.34786708 0 4 C0 2.68 0 1.36 0 0 Z " fill="#347DB3" transform="translate(160,47)"/>
<path d="M0 0 C2.2484373 3.37265595 3.32396617 6.73148071 4.5 10.5625 C4.81904297 11.56120117 4.81904297 11.56120117 5.14453125 12.58007812 C7.97646456 21.69264879 9.36844049 30.38754032 9.3125 39.9375 C9.30903564 40.90026855 9.30557129 41.86303711 9.30200195 42.85498047 C9.17046162 51.43780535 8.54431135 59.13561452 3 66 C3.45541889 63.66191194 3.91464837 61.33673887 4.5 59.02734375 C5.94369261 52.99315981 6.4235151 46.92513532 6.8125 40.75 C6.87759766 39.88624756 6.94269531 39.02249512 7.00976562 38.13256836 C7.29861269 32.72453499 6.58056285 29.84332239 4 25 C3.36909574 21.89531485 3.08663812 18.77884585 2.8125 15.625 C2.73064453 14.79355469 2.64878906 13.96210937 2.56445312 13.10546875 C2.36571437 11.07131913 2.18138416 9.03577051 2 7 C1.34 7 0.68 7 0 7 C0 4.69 0 2.38 0 0 Z " fill="#2F7BAD" transform="translate(214,109)"/>
<path d="M0 0 C0.80373047 -0.01224609 1.60746094 -0.02449219 2.43554688 -0.03710938 C8.09421593 -0.05076666 13.22075662 0.74068607 18.6875 2.1875 C18.6875 2.8475 18.6875 3.5075 18.6875 4.1875 C18.11942627 4.25219482 17.55135254 4.31688965 16.96606445 4.38354492 C5.54666102 5.72829424 -4.81563446 7.26039985 -15.3125 12.1875 C-14.3125 9.1875 -14.3125 9.1875 -11.3125 7.1875 C-4.62185421 4.51124168 1.52776776 3.77619623 8.6875 4.1875 C8.6875 3.1975 8.6875 2.2075 8.6875 1.1875 C5.04011086 1.43946524 1.39514513 1.71755129 -2.25 2 C-3.27158203 2.07025391 -4.29316406 2.14050781 -5.34570312 2.21289062 C-11.06338674 2.66957462 -16.10327735 3.49258421 -21.46875 5.5546875 C-23.79943538 6.35462613 -25.87019863 6.42385175 -28.3125 6.1875 C-25.91633408 3.79133408 -24.3167896 3.47413841 -21.0625 2.625 C-20.12921875 2.37621094 -19.1959375 2.12742187 -18.234375 1.87109375 C-12.08038926 0.43132436 -6.29466327 0.00497602 0 0 Z " fill="#165381" transform="translate(84.3125,22.8125)"/>
<path d="M0 0 C1.48831242 0.00667405 2.97660807 0.01863442 4.46484375 0.03515625 C5.22345703 0.03966797 5.98207031 0.04417969 6.76367188 0.04882812 C8.64326246 0.06064945 10.52281274 0.07858547 12.40234375 0.09765625 C12.40234375 0.42765625 12.40234375 0.75765625 12.40234375 1.09765625 C11.6546875 1.15824219 10.90703125 1.21882813 10.13671875 1.28125 C9.151875 1.36503906 8.16703125 1.44882813 7.15234375 1.53515625 C5.69054687 1.65697266 5.69054687 1.65697266 4.19921875 1.78125 C1.17462753 2.06112551 1.17462753 2.06112551 -2.59765625 3.09765625 C-2.92765625 37.08765625 -3.25765625 71.07765625 -3.59765625 106.09765625 C-3.92765625 106.09765625 -4.25765625 106.09765625 -4.59765625 106.09765625 C-4.62077675 92.42463063 -4.63856984 78.75160961 -4.64946842 65.07856846 C-4.65469789 58.73035049 -4.66179669 52.38214585 -4.6730957 46.03393555 C-4.68392231 39.91317043 -4.6899326 33.79241816 -4.69253349 27.67164421 C-4.69438815 25.33074682 -4.69800954 22.98985016 -4.70338631 20.64895821 C-4.71059373 17.38257423 -4.71164732 14.1162441 -4.71118164 10.84985352 C-4.71477692 9.87162125 -4.71837219 8.89338898 -4.72207642 7.88551331 C-4.72070175 7.00065247 -4.71932709 6.11579163 -4.71791077 5.20411682 C-4.71883256 4.43073251 -4.71975435 3.65734819 -4.72070408 2.86052799 C-4.48602143 -0.50170457 -3.47108755 0.09422062 0 0 Z " fill="#2C8BD4" transform="translate(103.59765625,69.90234375)"/>
<path d="M0 0 C1.36705078 0.0009668 1.36705078 0.0009668 2.76171875 0.00195312 C9.44683278 0.04536296 15.85489884 0.45347728 22.25 2.5625 C22.98734375 2.79710937 23.7246875 3.03171875 24.484375 3.2734375 C26.67195585 4.26547998 27.92092082 5.3985432 29.5 7.1875 C27.91638672 6.754375 27.91638672 6.754375 26.30078125 6.3125 C9.5318572 1.99988802 -9.57896078 -0.26766076 -25.21484375 8.75390625 C-27.36968623 10.16663868 -29.43350654 11.65063415 -31.5 13.1875 C-32.49 13.6825 -32.49 13.6825 -33.5 14.1875 C-33.0335272 9.62218427 -33.0335272 9.62218427 -30.64453125 7.67578125 C-29.49017578 7.09376953 -29.49017578 7.09376953 -28.3125 6.5 C-27.49652344 6.0875 -26.68054688 5.675 -25.83984375 5.25 C-23.09776381 4.00484851 -20.39889175 3.00675202 -17.5 2.1875 C-16.50226563 1.84460937 -15.50453125 1.50171875 -14.4765625 1.1484375 C-9.68915773 -0.21625521 -4.94183221 -0.06640369 0 0 Z " fill="#2977B9" transform="translate(99.5,41.8125)"/>
<path d="M0 0 C2.20450673 1.51691058 4.02897871 3.16649182 6 5 C5.67 5.66 5.34 6.32 5 7 C4.34 7 3.68 7 3 7 C2.34 6.34 1.68 5.68 1 5 C-1.83213164 3.76422983 -1.83213164 3.76422983 -4.125 4.5 C-6.33050797 5.98111884 -6.33050797 5.98111884 -7.0625 9.3125 C-7.39090059 13.12489799 -7.39090059 13.12489799 -4.6875 15.6875 C-3.800625 16.450625 -2.91375 17.21375 -2 18 C-0.83203125 20.14453125 -0.83203125 20.14453125 0 22 C-0.9075 21.21625 -1.815 20.4325 -2.75 19.625 C-8.11567038 15.02269303 -13.56295401 10.51747992 -19 6 C-18.34 5.67 -17.68 5.34 -17 5 C-14.875 5.9375 -14.875 5.9375 -13 7 C-12.67 6.01 -12.34 5.02 -12 4 C-4.5106383 -1.04091653 -4.5106383 -1.04091653 0 0 Z " fill="#2890E3" transform="translate(174,58)"/>
<path d="M0 0 C0.66 0 1.32 0 2 0 C2 11.88 2 23.76 2 36 C6.29 34.02 10.58 32.04 15 30 C19.18730624 28.95317344 22.97856931 28.88844647 27.25 28.9375 C27.99507812 28.94201172 28.74015625 28.94652344 29.5078125 28.95117188 C31.3385764 28.96290754 33.16929873 28.9808415 35 29 C35 29.33 35 29.66 35 30 C33.71029297 30.02126953 33.71029297 30.02126953 32.39453125 30.04296875 C24.4089148 30.3651801 13.01993949 30.98006051 7 37 C5.33382885 37.04063832 3.66611905 37.042721 2 37 C2 37.66 2 38.32 2 39 C1.34 39 0.68 39 0 39 C-1.12947154 34.48211382 -1.12947154 34.48211382 -0.53344727 32.26269531 C0.19786604 29.16072198 0.11115328 26.23217501 0.09765625 23.046875 C0.0962413 22.38665344 0.09482635 21.72643188 0.09336853 21.04620361 C0.08779245 18.94742206 0.07524447 16.84874905 0.0625 14.75 C0.0574819 13.32291821 0.05291954 11.89583475 0.04882812 10.46875 C0.03783088 6.97913168 0.0205828 3.48957644 0 0 Z " fill="#2889D5" transform="translate(117,71)"/>
<path d="M0 0 C2.875 0.6875 2.875 0.6875 6 2 C7.3125 4.4375 7.3125 4.4375 8 7 C8.33 7.99 8.66 8.98 9 10 C9.99 10 10.98 10 12 10 C12 10.99 12 11.98 12 13 C12.66 13 13.32 13 14 13 C14.495 14.010625 14.99 15.02125 15.5 16.0625 C17.6537389 20.36223053 19.87934145 24.62276634 22.125 28.875 C22.47369141 29.54152588 22.82238281 30.20805176 23.18164062 30.89477539 C24.60448759 33.57563564 25.8410935 35.8410935 28 38 C29.14222874 41.99780058 29.08107875 45.8649837 29 50 C27.04315164 47.06472746 26.09676831 44.6241016 24.9375 41.3125 C20.40627275 29.3798253 13.92112971 18.66475144 6.04296875 8.6484375 C3.87788736 5.84169719 1.9363281 2.96758599 0 0 Z " fill="#2D78C1" transform="translate(174,80)"/>
<path d="M0 0 C5.16702785 7.75054178 3.99402872 20.64062828 2.3515625 29.49609375 C-0.32791691 38.30173334 -5.20952732 46.80635155 -13 52 C-13.66 51.67 -14.32 51.34 -15 51 C-13.5993784 47.498446 -12.37735911 46.53516323 -9 45 C-6.04026677 42.83711803 -5.47696552 40.52232482 -4.6015625 37.04296875 C-3.26702273 32.51073302 -1.10938926 28.21877851 1 24 C1.33815726 15.95384637 1.11962558 7.97733229 0 0 Z " fill="#337BB2" transform="translate(180,124)"/>
<path d="M0 0 C8.65190342 0.56425457 15.5730503 4.04481862 21.4375 10.4375 C24.20060372 13.79349642 26.50350408 16.90957781 28 21 C27.67 21.66 27.34 22.32 27 23 C26.4225 22.2575 25.845 21.515 25.25 20.75 C23.09224824 18.01969344 23.09224824 18.01969344 20.8125 15.8125 C19 14 19 14 18 12 C17.01 12.33 16.02 12.66 15 13 C14.67 12.34 14.34 11.68 14 11 C14.33 10.01 14.66 9.02 15 8 C13.5459375 7.5978125 13.5459375 7.5978125 12.0625 7.1875 C11.051875 6.795625 10.04125 6.40375 9 6 C8.67 5.01 8.34 4.02 8 3 C5.36 2.67 2.72 2.34 0 2 C0 1.34 0 0.68 0 0 Z " fill="#2D87C7" transform="translate(152,101)"/>
<path d="M0 0 C0 0.99 0 1.98 0 3 C-0.90621094 3.09796875 -1.81242187 3.1959375 -2.74609375 3.296875 C-9.92630705 4.17825568 -16.78388205 5.05129976 -23 9 C-23.33 9.66 -23.66 10.32 -24 11 C-24.66 11 -25.32 11 -26 11 C-24.79618552 8.50638429 -23.54571278 6.31856917 -22 4 C-22.33 3.01 -22.66 2.02 -23 1 C-15.30881404 0.24833087 -7.72772107 -0.13690844 0 0 Z " fill="#075AA1" transform="translate(93,24)"/>
<path d="M0 0 C0.66 0 1.32 0 2 0 C2.38671875 0.78503906 2.7734375 1.57007813 3.171875 2.37890625 C13.05166341 22.58950589 13.05166341 22.58950589 27 40 C26.67 40.66 26.34 41.32 26 42 C16.74111961 32.45662888 9.67058621 21.40880978 3.375 9.75 C3.03210937 9.11819824 2.68921875 8.48639648 2.3359375 7.83544922 C0.85575374 5.01153613 0 3.23688197 0 0 Z " fill="#0E4C82" transform="translate(33,133)"/>
<path d="M0 0 C1.33332095 2.6666419 0.67102033 4.16680303 0 7 C0.99 7.33 1.98 7.66 3 8 C2.28650391 8.60521484 2.28650391 8.60521484 1.55859375 9.22265625 C-0.30267361 11.34515412 -0.52275138 12.67406254 -0.9375 15.4375 C-1.69547893 19.41526979 -2.69071142 21.46287876 -6 24 C-8.23674884 15.55513192 -4.00947118 7.32765422 0 0 Z " fill="#3C87C6" transform="translate(58,53)"/>
<path d="M0 0 C0 0.66 0 1.32 0 2 C-4.96993194 4.43425238 -8.34605369 5.34615998 -14 5 C-14 5.66 -14 6.32 -14 7 C-7.73 6.67 -1.46 6.34 5 6 C1.09096111 7.95451944 -0.35179029 8.25584996 -4.53515625 8.265625 C-5.59154297 8.26820313 -6.64792969 8.27078125 -7.73632812 8.2734375 C-8.83396484 8.26570312 -9.93160156 8.25796875 -11.0625 8.25 C-12.16400391 8.25773438 -13.26550781 8.26546875 -14.40039062 8.2734375 C-15.45548828 8.27085937 -16.51058594 8.26828125 -17.59765625 8.265625 C-18.56195557 8.26336914 -19.52625488 8.26111328 -20.51977539 8.25878906 C-23 8 -23 8 -26 6 C-22.33271057 3.76043394 -18.78804964 3.4690402 -14.5625 3 C-9.71001307 2.46029937 -4.66090428 0 0 0 Z " fill="#3175A6" transform="translate(180,195)"/>
<path d="M0 0 C0.33 0 0.66 0 1 0 C1.33 5.28 1.66 10.56 2 16 C3.65 15.01 5.3 14.02 7 13 C7.7425 12.67 8.485 12.34 9.25 12 C11.35137474 11.05720054 11.35137474 11.05720054 12 8 C12 8.66 12 9.32 12 10 C14.33075929 9.04134491 14.33075929 9.04134491 16 6 C16 6.66 16 7.32 16 8 C18.64 8 21.28 8 24 8 C24.33 9.65 24.66 11.3 25 13 C24.401875 12.690625 23.80375 12.38125 23.1875 12.0625 C20.91043228 10.89790296 20.91043228 10.89790296 18 10 C15.4023633 11.40120268 12.97099767 12.83958817 10.5 14.4375 C9.16005984 15.29633784 7.81643961 16.14946823 6.46875 16.99609375 C5.87513672 17.37950928 5.28152344 17.7629248 4.66992188 18.15795898 C3 19 3 19 0 19 C0 12.73 0 6.46 0 0 Z " fill="#2D76AE" transform="translate(98,163)"/>
<path d="M0 0 C4.59933696 4.59933696 3.34976636 15.25867243 3.625 21.5 C3.6765625 22.49386719 3.728125 23.48773438 3.78125 24.51171875 C4.41047647 38.52126102 4.41047647 38.52126102 1.80859375 43.09375 C0.5390625 44.39583333 -0.73046875 45.69791667 -2 47 C-3.34501144 44.30997712 -2.48381557 42.82132714 -1.66479492 40.04956055 C2.21822226 26.83596945 1.67495031 13.57906148 0 0 Z " fill="#347AB5" transform="translate(203,130)"/>
<path d="M0 0 C-2.73674861 2.09755335 -5.53566755 4.01420623 -8.4375 5.875 C-11.20468986 7.69551964 -13.64960333 9.47815587 -15.9375 11.875 C-16.618125 12.57625 -17.29875 13.2775 -18 14 C-18.66 14 -19.32 14 -20 14 C-21.41815396 18.10188836 -21.41815396 18.10188836 -22.4375 22.3125 C-22.623125 22.869375 -22.80875 23.42625 -23 24 C-23.99 24.33 -24.98 24.66 -26 25 C-25.15009411 17.50695213 -22.59404717 13.02343398 -17 8 C-6.42904258 -0.16918533 -6.42904258 -0.16918533 0 0 Z " fill="#114F80" transform="translate(59,29)"/>
<path d="M0 0 C0.84820312 0.2165625 1.69640625 0.433125 2.5703125 0.65625 C13.8813815 3.34107517 24.78562883 4.83145651 35.9140625 0.55859375 C38.32357994 -0.08665156 39.66738084 0.20310975 42 1 C29.87871952 6.15034645 18.85791151 7.64528419 6 4 C2.375 2.375 2.375 2.375 0 1 C0 0.67 0 0.34 0 0 Z " fill="#2877B3" transform="translate(123,176)"/>
<path d="M0 0 C0.33 0.33 0.66 0.66 1 1 C3.32817964 1.36760731 5.6618385 1.70241581 8 2 C8 2.33 8 2.66 8 3 C7.21874756 2.98428955 6.43749512 2.9685791 5.63256836 2.95239258 C2.06762021 2.88974761 -1.49721177 2.85091511 -5.0625 2.8125 C-6.29162109 2.78736328 -7.52074219 2.76222656 -8.78710938 2.73632812 C-15.4557186 2.68240406 -20.04794666 3.05223953 -26 6 C-28.4375 5.6875 -28.4375 5.6875 -30 5 C-20.73754129 0.69285216 -10.18512632 -2.54628158 0 0 Z " fill="#2D81BF" transform="translate(108,29)"/>
<path d="M0 0 C5.61 0 11.22 0 17 0 C17.33 12.54 17.66 25.08 18 38 C18.99 38 19.98 38 21 38 C17.25 41 17.25 41 15 41 C15.33 27.8 15.66 14.6 16 1 C10.72 1 5.44 1 0 1 C0 0.67 0 0.34 0 0 Z " fill="#101010" transform="translate(263,66)"/>
<path d="M0 0 C0.495 1.485 0.495 1.485 1 3 C-9.47472063 12.42724857 -21.02885099 15.64814609 -35 15 C-35 14.67 -35 14.34 -35 14 C-34.21238281 13.91363281 -33.42476562 13.82726562 -32.61328125 13.73828125 C-20.45442918 12.16986128 -8.88013248 8.88013248 0 0 Z " fill="#0D4A7D" transform="translate(206,197)"/>
<path d="M0 0 C2.24543591 3.36815387 3.41369428 6.74205852 4.625 10.5625 C4.85082764 11.27470703 5.07665527 11.98691406 5.30932617 12.72070312 C6.95955422 18.21938986 7.62177837 23.2520044 7 29 C6.34 28.67 5.68 28.34 5 28 C4.40234375 25.59375 4.40234375 25.59375 3.9375 22.5 C3.77378906 21.42234375 3.61007813 20.3446875 3.44140625 19.234375 C2.8854789 15.16085424 2.40908729 11.09087291 2 7 C1.34 7 0.68 7 0 7 C0 4.69 0 2.38 0 0 Z " fill="#2B84CA" transform="translate(214,109)"/>
<path d="M0 0 C0.66 0.33 1.32 0.66 2 1 C1.5547115 6.27315333 0.91626837 11.01770224 -1 16 C-1.66 14.68 -2.32 13.36 -3 12 C-3.680625 13.2065625 -3.680625 13.2065625 -4.375 14.4375 C-6 17 -6 17 -8 18 C-6.443154 13.98696492 -4.68861143 10.0907072 -2.875 6.1875 C-2.33617187 5.02605469 -1.79734375 3.86460937 -1.2421875 2.66796875 C-0.62730469 1.34732422 -0.62730469 1.34732422 0 0 Z " fill="#114D77" transform="translate(222,172)"/>
<path d="M0 0 C1.65 0 3.3 0 5 0 C5.33 0.99 5.66 1.98 6 3 C4.92363281 3.08636719 3.84726563 3.17273438 2.73828125 3.26171875 C-6.97833566 4.15691999 -15.05160524 5.92264447 -24 10 C-23 7 -23 7 -20 5 C-13.30935421 2.32374168 -7.15973224 1.58869623 0 2 C0 1.34 0 0.68 0 0 Z " fill="#084577" transform="translate(93,25)"/>
<path d="M0 0 C9.02511647 0.41023257 17.97699465 5.49548229 25 11 C25.33 11.99 25.66 12.98 26 14 C20.60881291 12.06254214 15.82415823 9.13092532 10.8828125 6.27734375 C7.32495688 4.2433244 3.87179572 2.39142659 0 1 C0 0.67 0 0.34 0 0 Z " fill="#2A77BA" transform="translate(129,49)"/>
<path d="M0 0 C4.24319537 1.43758532 7.23547015 3.53990863 10.6875 6.375 C11.64011719 7.14585937 12.59273437 7.91671875 13.57421875 8.7109375 C15.77400564 10.78674285 16.91503119 12.22095709 18 15 C17.236875 14.690625 16.47375 14.38125 15.6875 14.0625 C13.81210323 13.32106407 11.91315348 12.63771783 10 12 C9.5875 11.2575 9.175 10.515 8.75 9.75 C6.71449646 6.55135158 4.58010081 5.11820072 1.42578125 3.11328125 C0.95527344 2.74589844 0.48476562 2.37851563 0 2 C0 1.34 0 0.68 0 0 Z " fill="#0F5284" transform="translate(86,176)"/>
<path d="M0 0 C0 0.33 0 0.66 0 1 C-1.28970703 1.02126953 -1.28970703 1.02126953 -2.60546875 1.04296875 C-10.53249408 1.36281601 -16.87884723 2.68514937 -24.16015625 5.84375 C-26.79568987 6.91681458 -29.1993224 7.5477805 -32 8 C-22.96525871 -0.72319849 -11.69439329 -0.52822856 0 0 Z " fill="#317CB1" transform="translate(152,100)"/>
<path d="M0 0 C1.38975182 4.88626116 1.0139409 9.77129167 0.87304688 14.80078125 C0.81320385 18.82082413 1.01812106 21.51436077 3 25 C3.1953125 27.359375 3.1953125 27.359375 3.125 29.75 C3.10695313 30.54921875 3.08890625 31.3484375 3.0703125 32.171875 C3.04710937 32.77515625 3.02390625 33.3784375 3 34 C1.48075635 31.22492995 0.93944829 29.55343113 0.5 26.3125 C0.335 25.219375 0.17 24.12625 0 23 C-0.66 22.67 -1.32 22.34 -2 22 C-1.86105852 18.89548451 -1.712657 15.79149165 -1.5625 12.6875 C-1.50352539 11.36588867 -1.50352539 11.36588867 -1.44335938 10.01757812 C-1.40146484 9.17001953 -1.35957031 8.32246094 -1.31640625 7.44921875 C-1.27974854 6.66893311 -1.24309082 5.88864746 -1.20532227 5.0847168 C-1 3 -1 3 0 0 Z " fill="#085791" transform="translate(24,75)"/>
<path d="M0 0 C0.33 0 0.66 0 1 0 C1.33 12.54 1.66 25.08 2 38 C1.01 37.67 0.02 37.34 -1 37 C-0.67 24.79 -0.34 12.58 0 0 Z " fill="#171717" transform="translate(420,69)"/>
<path d="M0 0 C0.67578125 1.765625 0.67578125 1.765625 1 4 C-0.14453125 5.921875 -0.14453125 5.921875 -1.8125 7.75 C-2.35519531 8.36359375 -2.89789063 8.9771875 -3.45703125 9.609375 C-5 11 -5 11 -7 11 C-7.33 12.65 -7.66 14.3 -8 16 C-9.65 15.67 -11.3 15.34 -13 15 C-12.29875 14.319375 -11.5975 13.63875 -10.875 12.9375 C-6.86828417 8.93078417 -3.14458921 4.71688381 0 0 Z " fill="#2A7AB1" transform="translate(199,177)"/>
<path d="M0 0 C1.98 0.66 3.96 1.32 6 2 C6 2.66 6 3.32 6 4 C6.680625 4.165 7.36125 4.33 8.0625 4.5 C12.33630842 6.68237026 15.29191369 10.05883693 18 14 C18 14.99 18 15.98 18 17 C17.53851563 16.5153125 17.07703125 16.030625 16.6015625 15.53125 C11.98569214 10.78766781 7.15131338 6.60289328 1.90625 2.56640625 C1.2771875 2.04949219 0.648125 1.53257813 0 1 C0 0.67 0 0.34 0 0 Z " fill="#327EC0" transform="translate(155,63)"/>
<path d="M0 0 C2.48631889 4.4034879 2.34318916 8.17013985 2.3125 13.125 C2.31121094 13.97360596 2.30992187 14.82221191 2.30859375 15.6965332 C2.21450725 21.83744123 1.45637665 27.31231836 -1 33 C-1.66 32.01 -2.32 31.02 -3 30 C-2.01 28.515 -2.01 28.515 -1 27 C-0.08729553 23.52524229 0.11860605 20.28163473 0.09765625 16.69921875 C0.09443359 15.72275391 0.09121094 14.74628906 0.08789062 13.74023438 C0.07951172 12.73283203 0.07113281 11.72542969 0.0625 10.6875 C0.05798828 9.66076172 0.05347656 8.63402344 0.04882812 7.57617188 C0.03708184 5.05072118 0.02065565 2.52539095 0 0 Z " fill="#131213" transform="translate(341,124)"/>
<path d="M0 0 C-0.6875 1.875 -0.6875 1.875 -2 4 C-3.65204456 4.70211894 -5.31923769 5.36971413 -7 6 C-7.99 7.485 -7.99 7.485 -9 9 C-9.99 9 -10.98 9 -12 9 C-12.66 10.32 -13.32 11.64 -14 13 C-14.66 12.67 -15.32 12.34 -16 12 C-12.47763777 7.22776731 -6.40737423 0 0 0 Z " fill="#2670AF" transform="translate(78,35)"/>
<path d="M0 0 C-1.359375 1.984375 -1.359375 1.984375 -4 4 C-7.42513915 4.51270905 -10.79637621 4.37576221 -14.25 4.25 C-15.18585938 4.23195312 -16.12171875 4.21390625 -17.0859375 4.1953125 C-19.39167015 4.14825673 -21.69530945 4.08253713 -24 4 C-24 3.67 -24 3.34 -24 3 C-22.90300781 2.87882813 -21.80601562 2.75765625 -20.67578125 2.6328125 C-19.22131177 2.46390637 -17.76688696 2.29461519 -16.3125 2.125 C-15.59126953 2.04636719 -14.87003906 1.96773437 -14.12695312 1.88671875 C-10.89140245 1.50258945 -8.21351316 1.08540527 -5.16796875 -0.1328125 C-3 -1 -3 -1 0 0 Z " fill="#095BA0" transform="translate(191,210)"/>
<path d="M0 0 C0.66 0.33 1.32 0.66 2 1 C-2.09558862 7.2989904 -6.04814032 12.38427208 -12 17 C-12 15.68 -12 14.36 -12 13 C-10.63875 12.1028125 -10.63875 12.1028125 -9.25 11.1875 C-5.24418449 8.49127802 -4.1295339 6.2590678 -2 2 C-1.34 2 -0.68 2 0 2 C0 1.34 0 0.68 0 0 Z " fill="#2878AF" transform="translate(215,176)"/>
<path d="M0 0 C0.33 0.66 0.66 1.32 1 2 C3.64 2 6.28 2 9 2 C9.33 3.65 9.66 5.3 10 7 C9.401875 6.690625 8.80375 6.38125 8.1875 6.0625 C5.91043228 4.89790296 5.91043228 4.89790296 3 4 C2.071875 4.4640625 2.071875 4.4640625 1.125 4.9375 C-1.40597375 6.20298687 -3.20727405 6.15515144 -6 6 C-5.34 5.67 -4.68 5.34 -4 5 C-3.67 4.01 -3.34 3.02 -3 2 C-3 2.66 -3 3.32 -3 4 C-2.34 3.67 -1.68 3.34 -1 3 C-0.67 2.01 -0.34 1.02 0 0 Z " fill="#2C82C3" transform="translate(113,169)"/>
<path d="M0 0 C0.99 0.33 1.98 0.66 3 1 C2.67 1.99 2.34 2.98 2 4 C2.27515888 7.35259373 2.59179372 10.68520211 3.03515625 14.01953125 C3.43537998 18.23365167 3.2604815 19.68463718 0.515625 23.0078125 C-0.31453125 23.66523438 -1.1446875 24.32265625 -2 25 C-1.47731534 22.23723823 -0.89130413 19.6739124 0 17 C0.07973476 15.66474283 0.10771338 14.32587917 0.09765625 12.98828125 C0.09443359 12.23095703 0.09121094 11.47363281 0.08789062 10.69335938 C0.07532227 9.51483398 0.07532227 9.51483398 0.0625 8.3125 C0.05798828 7.51521484 0.05347656 6.71792969 0.04882812 5.89648438 C0.0370585 3.93095743 0.01912348 1.96546915 0 0 Z " fill="#2C8FDD" transform="translate(162,129)"/>
<path d="M0 0 C1.4540625 0.0309375 1.4540625 0.0309375 2.9375 0.0625 C3.2675 1.0525 3.5975 2.0425 3.9375 3.0625 C4.5975 2.7325 5.2575 2.4025 5.9375 2.0625 C5.6075 3.3825 5.2775 4.7025 4.9375 6.0625 C1.6375 6.7225 -1.6625 7.3825 -5.0625 8.0625 C-4.7325 7.4025 -4.4025 6.7425 -4.0625 6.0625 C-2.7425 6.0625 -1.4225 6.0625 -0.0625 6.0625 C-0.0625 5.0725 -0.0625 4.0825 -0.0625 3.0625 C-1.3825 2.4025 -2.7025 1.7425 -4.0625 1.0625 C-3.0625 0.0625 -3.0625 0.0625 0 0 Z " fill="#228DDD" transform="translate(160.0625,169.9375)"/>
<path d="M0 0 C0 0.33 0 0.66 0 1 C-3.79160297 1.05786668 -7.58309311 1.09355054 -11.375 1.125 C-12.99535156 1.15013672 -12.99535156 1.15013672 -14.6484375 1.17578125 C-15.6796875 1.18222656 -16.7109375 1.18867187 -17.7734375 1.1953125 C-19.20308838 1.21102295 -19.20308838 1.21102295 -20.66162109 1.22705078 C-23 1 -23 1 -25 -1 C-16.3237167 -2.50891884 -8.47716992 -2.51175405 0 0 Z " fill="#2B8CDD" transform="translate(117,42)"/>
<path d="M0 0 C19.00455581 -0.3690205 19.00455581 -0.3690205 27 2 C27 2.66 27 3.32 27 4 C25.35 4 23.7 4 22 4 C22 3.34 22 2.68 22 2 C14.74 1.67 7.48 1.34 0 1 C0 0.67 0 0.34 0 0 Z " fill="#194B6D" transform="translate(76,23)"/>
<path d="M0 0 C0.66 0.33 1.32 0.66 2 1 C1.3125 3.375 1.3125 3.375 0 6 C-1.65204456 6.70211894 -3.31923769 7.36971413 -5 8 C-5.68268138 9.32520503 -6.3507041 10.65812182 -7 12 C-9.125 12.75 -9.125 12.75 -11 13 C-6.49295775 7.36619718 -6.49295775 7.36619718 -3.8125 5.375 C-1.7350749 3.79902234 -0.98668795 2.38449588 0 0 Z " fill="#09518F" transform="translate(219,183)"/>
<path d="M0 0 C0.66 0.66 1.32 1.32 2 2 C4.89883083 2.24339551 4.89883083 2.24339551 8.125 2.125 C9.76855469 2.09792969 9.76855469 2.09792969 11.4453125 2.0703125 C12.70988281 2.03550781 12.70988281 2.03550781 14 2 C13.01 2.33 12.02 2.66 11 3 C11 3.66 11 4.32 11 5 C9.04082341 4.9131252 7.08258129 4.80495488 5.125 4.6875 C4.03445312 4.62949219 2.94390625 4.57148438 1.8203125 4.51171875 C0.88960937 4.34285156 -0.04109375 4.17398438 -1 4 C-1.66 3.01 -2.32 2.02 -3 1 C-2.01 0.67 -1.02 0.34 0 0 Z " fill="#2B85D7" transform="translate(133,161)"/>
<path d="M0 0 C0.66 0 1.32 0 2 0 C1.89013032 3.27152618 1.7595003 6.54190114 1.625 9.8125 C1.5940625 10.74126953 1.563125 11.67003906 1.53125 12.62695312 C1.49257812 13.51962891 1.45390625 14.41230469 1.4140625 15.33203125 C1.36693115 16.56530151 1.36693115 16.56530151 1.31884766 17.82348633 C1 20 1 20 -1 23 C-1.02894547 19.54168414 -1.04678 16.08339928 -1.0625 12.625 C-1.07087891 11.64015625 -1.07925781 10.6553125 -1.08789062 9.640625 C-1.09111328 8.69960937 -1.09433594 7.75859375 -1.09765625 6.7890625 C-1.10289307 5.91975098 -1.10812988 5.05043945 -1.11352539 4.15478516 C-1 2 -1 2 0 0 Z " fill="#298DD8" transform="translate(220,140)"/>
<path d="M0 0 C4.94220419 -0.47827783 9.53469531 0.96803551 14 3 C14.99 3.99 15.98 4.98 17 6 C8.09 4.02 8.09 4.02 -1 2 C-0.67 1.34 -0.34 0.68 0 0 Z " fill="#3477B6" transform="translate(112,43)"/>
<path d="M0 0 C0.99 0.33 1.98 0.66 3 1 C2.40832031 1.45890625 1.81664063 1.9178125 1.20703125 2.390625 C-2.88379822 5.56719079 -6.96818271 8.74853444 -11 12 C-10.45550236 8.20527027 -8.96207612 6.72968732 -6.0625 4.3125 C-5.35222656 3.71050781 -4.64195313 3.10851563 -3.91015625 2.48828125 C-2 1 -2 1 0 0 Z " fill="#0B477A" transform="translate(65,35)"/>
<path d="M0 0 C0.66 0 1.32 0 2 0 C1.84653748 7.05927607 1.1246795 11.00672254 -4 16 C-5 14 -5 14 -4.0625 10.875 C-3.711875 9.92625 -3.36125 8.9775 -3 8 C-2.01 8 -1.02 8 0 8 C0 5.36 0 2.72 0 0 Z " fill="#2A7FC6" transform="translate(205,161)"/>
<path d="M0 0 C0.66 0.33 1.32 0.66 2 1 C0.375 7.75 0.375 7.75 -3 10 C-3.78260048 7.18263828 -4.19511109 5.54030762 -3.1875 2.75 C-2 1 -2 1 0 0 Z " fill="#3D76AF" transform="translate(55,67)"/>
<path d="M0 0 C3.99824088 3.66505414 6.60168569 7.11112852 9 12 C8.67 12.66 8.34 13.32 8 14 C0 4.57142857 0 4.57142857 0 0 Z " fill="#2E7AB0" transform="translate(171,110)"/>
<path d="M0 0 C0 0.99 0 1.98 0 3 C-0.33 3.33 -0.66 3.66 -1 4 C-3.69082872 3.82364548 -6.32851446 3.38164079 -9 3 C-7.14340032 -0.71319936 -3.69365381 -0.09982848 0 0 Z " fill="#25668B" transform="translate(163,199)"/>
<path d="M0 0 C1.60717771 2.41076656 2.61542515 4.28099245 3.625 6.9375 C3.88539063 7.60652344 4.14578125 8.27554688 4.4140625 8.96484375 C5 11 5 11 5 15 C4.34 15 3.68 15 3 15 C2.67 12.36 2.34 9.72 2 7 C1.34 7 0.68 7 0 7 C0 4.69 0 2.38 0 0 Z " fill="#327BB4" transform="translate(214,109)"/>
<path d="M0 0 C1.28132812 0.00902344 2.56265625 0.01804687 3.8828125 0.02734375 C4.87023437 0.03894531 5.85765625 0.05054687 6.875 0.0625 C6.875 0.3925 6.875 0.7225 6.875 1.0625 C5.64523438 1.11857422 5.64523438 1.11857422 4.390625 1.17578125 C3.31296875 1.24152344 2.2353125 1.30726562 1.125 1.375 C0.05765625 1.43300781 -1.0096875 1.49101563 -2.109375 1.55078125 C-5.3071068 2.09340154 -6.75098691 2.91321145 -9.125 5.0625 C-10.445 4.4025 -11.765 3.7425 -13.125 3.0625 C-8.29812678 0.64906339 -5.53066888 -0.05027881 0 0 Z " fill="#2289D7" transform="translate(145.125,100.9375)"/>
<path d="M0 0 C0.66 0.33 1.32 0.66 2 1 C1.24203125 1.61488281 1.24203125 1.61488281 0.46875 2.2421875 C-0.50578125 3.05042969 -0.50578125 3.05042969 -1.5 3.875 C-2.47453125 4.67550781 -2.47453125 4.67550781 -3.46875 5.4921875 C-4.22671875 6.23855469 -4.22671875 6.23855469 -5 7 C-5 7.66 -5 8.32 -5 9 C-7.5 10.625 -7.5 10.625 -10 12 C-8.62968895 6.34746692 -4.32310587 3.4886459 0 0 Z " fill="#101011" transform="translate(374,102)"/>
<path d="M0 0 C2.875 0.6875 2.875 0.6875 6 2 C7.25 4.3125 7.25 4.3125 8 7 C8.37125 7.928125 8.7425 8.85625 9.125 9.8125 C9.558125 10.8953125 9.558125 10.8953125 10 12 C6.40459445 8.50732032 3.12221448 4.92506963 0 1 C0 0.67 0 0.34 0 0 Z " fill="#357CBA" transform="translate(174,80)"/>
<path d="M0 0 C3.13506611 0.33589994 4.025249 1.02665172 6.25 3.375 C8 6 8 6 8 9 C4.23145777 7.74381926 3.92041544 6.33985294 2 3 C1.34 2.67 0.68 2.34 0 2 C0 1.34 0 0.68 0 0 Z " fill="#3183B8" transform="translate(183,67)"/>
<path d="M0 0 C1.32 0 2.64 0 4 0 C4 1.32 4 2.64 4 4 C5.4166747 5.7511573 5.4166747 5.7511573 7 7 C0.25 5.25 0.25 5.25 -2 3 C-1.34 2.01 -0.68 1.02 0 0 Z " fill="#2889D9" transform="translate(128,43)"/>
<path d="M0 0 C0.99 0.33 1.98 0.66 3 1 C1.87672229 2.45966034 0.75131706 3.91768364 -0.375 5.375 C-1.00148438 6.18710937 -1.62796875 6.99921875 -2.2734375 7.8359375 C-4 10 -4 10 -6 12 C-5.67 10.02 -5.34 8.04 -5 6 C-4.01 5.67 -3.02 5.34 -2 5 C-1.33820153 3.01954441 -1.33820153 3.01954441 -1 1 C-0.67 0.67 -0.34 0.34 0 0 Z " fill="#337BAE" transform="translate(63,56)"/>
<path d="M0 0 C3.3 0 6.6 0 10 0 C10 0.99 10 1.98 10 3 C6.6875 3.1875 6.6875 3.1875 3 3 C2.01 2.01 1.02 1.02 0 0 Z " fill="#095391" transform="translate(83,24)"/>
<path d="M0 0 C0.33 0 0.66 0 1 0 C1 1.65 1 3.3 1 5 C-2.96 6.98 -2.96 6.98 -7 9 C-5.51461988 4.2962963 -5.51461988 4.2962963 -2.9375 2.8125 C-2.298125 2.544375 -1.65875 2.27625 -1 2 C-0.67 1.34 -0.34 0.68 0 0 Z " fill="#2C84C0" transform="translate(66,44)"/>
<path d="M0 0 C5.19591612 0.44033187 8.66335081 0.88303339 13 4 C9.29218328 5.23593891 8.32489747 4.5678132 4.8125 3.0625 C3.91144531 2.68222656 3.01039063 2.30195313 2.08203125 1.91015625 C1.39496094 1.60980469 0.70789063 1.30945313 0 1 C0 0.67 0 0.34 0 0 Z " fill="#09518B" transform="translate(128,204)"/>
<path d="M0 0 C0.66 0.33 1.32 0.66 2 1 C2.59355614 3.64860427 2.74209269 6.29197322 3 9 C2.01 9.495 2.01 9.495 1 10 C0.01 8.35 -0.98 6.7 -2 5 C-1.34 5 -0.68 5 0 5 C-0.2784375 4.0409375 -0.2784375 4.0409375 -0.5625 3.0625 C-0.7790625 2.0415625 -0.7790625 2.0415625 -1 1 C-0.67 0.67 -0.34 0.34 0 0 Z " fill="#05569D" transform="translate(43,105)"/>
<path d="M0 0 C0.66 0 1.32 0 2 0 C2 0.66 2 1.32 2 2 C2.66 2 3.32 2 4 2 C4 2.66 4 3.32 4 4 C4.99 4.33 5.98 4.66 7 5 C7.6875 7.0625 7.6875 7.0625 8 9 C4.25366514 7.75122171 2.58958203 5.93952555 0 3 C0 2.01 0 1.02 0 0 Z " fill="#0B58A6" transform="translate(62,174)"/>
<path d="M0 0 C0.66 0 1.32 0 2 0 C1.34 2.64 0.68 5.28 0 8 C-0.66 8 -1.32 8 -2 8 C-2 8.66 -2 9.32 -2 10 C-2.66 10 -3.32 10 -4 10 C-4 9.01 -4 8.02 -4 7 C-3.34 7 -2.68 7 -2 7 C-1.855625 6.030625 -1.71125 5.06125 -1.5625 4.0625 C-1 1 -1 1 0 0 Z " fill="#2F8BD5" transform="translate(217,168)"/>
<path d="M0 0 C-3.465 2.97 -3.465 2.97 -7 6 C-7.66 5.67 -8.32 5.34 -9 5 C-8.00233891 2.50584728 -7.31383315 1.21259665 -5.0625 -0.3125 C-3 -1 -3 -1 0 0 Z " fill="#2C72BB" transform="translate(174,170)"/>
<path d="M0 0 C0.99 0.495 0.99 0.495 2 1 C2.96070434 3.88211302 3.10581883 5.69850044 3.0625 8.6875 C3.05347656 9.49574219 3.04445313 10.30398437 3.03515625 11.13671875 C3.02355469 11.75160156 3.01195312 12.36648437 3 13 C1.32889958 10.03821227 0.67317248 7.62928808 0.375 4.25 C0.30023437 3.45078125 0.22546875 2.6515625 0.1484375 1.828125 C0.09945313 1.22484375 0.05046875 0.6215625 0 0 Z " fill="#0B59A1" transform="translate(24,96)"/>
<path d="M0 0 C0.33 0.66 0.66 1.32 1 2 C0.0126546 3.67419438 -0.98812105 5.34051852 -2 7 C-2 7.99 -2 8.98 -2 10 C-2.99 10.33 -3.98 10.66 -5 11 C-4.74445946 9.53890937 -4.46999628 8.08111904 -4.1875 6.625 C-4.03667969 5.81289063 -3.88585938 5.00078125 -3.73046875 4.1640625 C-3 2 -3 2 0 0 Z " fill="#0B5593" transform="translate(38,43)"/>
<path d="M0 0 C2 1.0625 2 1.0625 4 3 C4.25 6.6875 4.25 6.6875 4 10 C0.06153846 5.69230769 0.06153846 5.69230769 -0.25 2.1875 C-0.1675 1.465625 -0.085 0.74375 0 0 Z " fill="#2E8FDE" transform="translate(176,121)"/>
<path d="M0 0 C1.2065625 0.0309375 1.2065625 0.0309375 2.4375 0.0625 C0.7875 1.7125 -0.8625 3.3625 -2.5625 5.0625 C-3.125 3.125 -3.125 3.125 -3.5625 1.0625 C-2.5625 0.0625 -2.5625 0.0625 0 0 Z " fill="#1F95EF" transform="translate(161.5625,51.9375)"/>
<path d="M0 0 C0.66 0 1.32 0 2 0 C1.42647107 3.87132028 -0.48704352 6.08172796 -3 9 C-3.25532751 5.93606987 -3.21861333 4.36766788 -1.625 1.6875 C-0.820625 0.8521875 -0.820625 0.8521875 0 0 Z " fill="#0A5084" transform="translate(52,46)"/>
<path d="M0 0 C3.08089673 2.77280706 4.68775452 5.06326356 6 9 C3 8 3 8 1.3125 5.625 C0 3 0 3 0 0 Z " fill="#0B456D" transform="translate(59,141)"/>
<path d="M0 0 C0.66 0.33 1.32 0.66 2 1 C1.34 4.3 0.68 7.6 0 11 C-2 7 -2 7 -1.125 3.25 C-0.75375 2.1775 -0.3825 1.105 0 0 Z " fill="#4F91C3" transform="translate(54,61)"/>
<path d="M0 0 C3.72433382 1.2125738 7.37802806 2.50859979 11 4 C8.35963647 4.97791242 7.12733368 5.03638105 4.375 4.25 C2 3 2 3 0 0 Z " fill="#155380" transform="translate(120,199)"/>
<path d="M0 0 C0.66 0 1.32 0 2 0 C2.99 2.31 3.98 4.62 5 7 C2.525 6.01 2.525 6.01 0 5 C0 3.35 0 1.7 0 0 Z " fill="#2D8CD9" transform="translate(205,96)"/>
<path d="M0 0 C2.3125 -0.3125 2.3125 -0.3125 5 0 C6.8125 2.5 6.8125 2.5 8 5 C7.236875 4.690625 6.47375 4.38125 5.6875 4.0625 C3.81210323 3.32106407 1.91315348 2.63771783 0 2 C0 1.34 0 0.68 0 0 Z " fill="#0A5997" transform="translate(96,186)"/>
<path d="M0 0 C0.66 0.33 1.32 0.66 2 1 C1.67 2.65 1.34 4.3 1 6 C0.01 6.33 -0.98 6.66 -2 7 C-1.125 1.125 -1.125 1.125 0 0 Z " fill="#296083" transform="translate(222,172)"/>
<path d="M0 0 C2 3 2 3 2 5 C2.66 5 3.32 5 4 5 C3.67 6.65 3.34 8.3 3 10 C0.70366176 6.55549263 0.45983515 4.06187717 0 0 Z " fill="#2A8DD5" transform="translate(210,104)"/>
<path d="" fill="#FFFFFF" transform="translate(0,0)"/>
<path d="" fill="#FFFFFF" transform="translate(0,0)"/>
<path d="" fill="#FFFFFF" transform="translate(0,0)"/>
<path d="" fill="#FFFFFF" transform="translate(0,0)"/>
<path d="" fill="#FFFFFF" transform="translate(0,0)"/>
<path d="" fill="#FFFFFF" transform="translate(0,0)"/>
<path d="" fill="#FFFFFF" transform="translate(0,0)"/>
<path d="" fill="#FFFFFF" transform="translate(0,0)"/>
<path d="" fill="#FFFFFF" transform="translate(0,0)"/>
<path d="" fill="#FFFFFF" transform="translate(0,0)"/>
<path d="" fill="#FFFFFF" transform="translate(0,0)"/>
<path d="" fill="#FFFFFF" transform="translate(0,0)"/>
<path d="" fill="#FFFFFF" transform="translate(0,0)"/>
<path d="" fill="#FFFFFF" transform="translate(0,0)"/>
<path d="" fill="#FFFFFF" transform="translate(0,0)"/>
<path d="" fill="#FFFFFF" transform="translate(0,0)"/>
<path d="" fill="#FFFFFF" transform="translate(0,0)"/>
<path d="" fill="#FFFFFF" transform="translate(0,0)"/>
<path d="" fill="#FFFFFF" transform="translate(0,0)"/>
<path d="" fill="#FFFFFF" transform="translate(0,0)"/>
<path d="" fill="#FFFFFF" transform="translate(0,0)"/>
<path d="" fill="#FFFFFF" transform="translate(0,0)"/>
<path d="" fill="#FFFFFF" transform="translate(0,0)"/>
<path d="" fill="#FFFFFF" transform="translate(0,0)"/>
<path d="" fill="#FFFFFF" transform="translate(0,0)"/>
<path d="" fill="#FFFFFF" transform="translate(0,0)"/>
<path d="" fill="#FFFFFF" transform="translate(0,0)"/>
<path d="" fill="#FFFFFF" transform="translate(0,0)"/>
<path d="" fill="#FFFFFF" transform="translate(0,0)"/>
<path d="" fill="#FFFFFF" transform="translate(0,0)"/>
<path d="" fill="#FFFFFF" transform="translate(0,0)"/>
<path d="" fill="#FFFFFF" transform="translate(0,0)"/>
<path d="" fill="#FFFFFF" transform="translate(0,0)"/>
<path d="" fill="#FFFFFF" transform="translate(0,0)"/>
<path d="" fill="#FFFFFF" transform="translate(0,0)"/>
<path d="" fill="#FFFFFF" transform="translate(0,0)"/>
<path d="" fill="#FFFFFF" transform="translate(0,0)"/>
<path d="" fill="#FFFFFF" transform="translate(0,0)"/>
<path d="" fill="#FFFFFF" transform="translate(0,0)"/>
<path d="" fill="#FFFFFF" transform="translate(0,0)"/>
<path d="" fill="#FFFFFF" transform="translate(0,0)"/>
<path d="" fill="#FFFFFF" transform="translate(0,0)"/>
<path d="" fill="#FFFFFF" transform="translate(0,0)"/>
<path d="" fill="#FFFFFF" transform="translate(0,0)"/>
<path d="" fill="#FFFFFF" transform="translate(0,0)"/>
<path d="" fill="#FFFFFF" transform="translate(0,0)"/>
<path d="" fill="#FFFFFF" transform="translate(0,0)"/>
<path d="" fill="#FFFFFF" transform="translate(0,0)"/>
<path d="" fill="#FFFFFF" transform="translate(0,0)"/>
<path d="" fill="#FFFFFF" transform="translate(0,0)"/>
<path d="" fill="#FFFFFF" transform="translate(0,0)"/>
<path d="" fill="#FFFFFF" transform="translate(0,0)"/>
<path d="" fill="#FFFFFF" transform="translate(0,0)"/>
<path d="" fill="#FFFFFF" transform="translate(0,0)"/>
<path d="" fill="#FFFFFF" transform="translate(0,0)"/>
<path d="" fill="#FFFFFF" transform="translate(0,0)"/>
<path d="" fill="#FFFFFF" transform="translate(0,0)"/>
<path d="" fill="#FFFFFF" transform="translate(0,0)"/>
<path d="" fill="#FFFFFF" transform="translate(0,0)"/>
<path d="" fill="#FFFFFF" transform="translate(0,0)"/>
<path d="" fill="#FFFFFF" transform="translate(0,0)"/>
<path d="" fill="#FFFFFF" transform="translate(0,0)"/>
<path d="" fill="#FFFFFF" transform="translate(0,0)"/>
<path d="" fill="#FFFFFF" transform="translate(0,0)"/>
<path d="" fill="#FFFFFF" transform="translate(0,0)"/>
<path d="" fill="#FFFFFF" transform="translate(0,0)"/>
<path d="" fill="#FFFFFF" transform="translate(0,0)"/>
<path d="" fill="#FFFFFF" transform="translate(0,0)"/>
<path d="" fill="#FFFFFF" transform="translate(0,0)"/>
<path d="" fill="#FFFFFF" transform="translate(0,0)"/>
<path d="" fill="#FFFFFF" transform="translate(0,0)"/>
<path d="" fill="#FFFFFF" transform="translate(0,0)"/>
<path d="" fill="#FFFFFF" transform="translate(0,0)"/>
<path d="" fill="#FFFFFF" transform="translate(0,0)"/>
<path d="" fill="#FFFFFF" transform="translate(0,0)"/>
<path d="" fill="#FFFFFF" transform="translate(0,0)"/>
<path d="" fill="#FFFFFF" transform="translate(0,0)"/>
<path d="" fill="#FFFFFF" transform="translate(0,0)"/>
</svg>
